<mxfile host="app.diagrams.net" modified="2021-09-07T05:55:54.115Z" agent="5.0 (Windows NT 10.0; Win64; x64) AppleWebKit/537.36 (KHTML, like Gecko) Chrome/92.0.4515.159 Safari/537.36" etag="wzuoFVYLnV4PfX1wACbc" version="15.0.6" type="github">
  <diagram id="GdWdjJoRidgPgw1u7Kjx" name="Page-1">
    <mxGraphModel dx="1038" dy="523" grid="1" gridSize="10" guides="1" tooltips="1" connect="1" arrows="1" fold="1" page="1" pageScale="1" pageWidth="827" pageHeight="1169" math="0" shadow="0">
      <root>
        <mxCell id="0" />
        <mxCell id="1" parent="0" />
        <mxCell id="IPWFRe141v1Tq7t88yk9-1" value="" style="group" vertex="1" connectable="0" parent="1">
          <mxGeometry width="480" height="50" as="geometry" />
        </mxCell>
        <mxCell id="IPWFRe141v1Tq7t88yk9-2" value="班级管理" style="rounded=0;whiteSpace=wrap;html=1;" vertex="1" parent="IPWFRe141v1Tq7t88yk9-1">
          <mxGeometry width="120" height="50" as="geometry" />
        </mxCell>
        <mxCell id="IPWFRe141v1Tq7t88yk9-3" value="学生管理" style="rounded=0;whiteSpace=wrap;html=1;" vertex="1" parent="IPWFRe141v1Tq7t88yk9-1">
          <mxGeometry x="120" width="120" height="50" as="geometry" />
        </mxCell>
        <mxCell id="IPWFRe141v1Tq7t88yk9-4" value="常用功能" style="rounded=0;whiteSpace=wrap;html=1;" vertex="1" parent="IPWFRe141v1Tq7t88yk9-1">
          <mxGeometry x="360" width="120" height="50" as="geometry" />
        </mxCell>
        <mxCell id="IPWFRe141v1Tq7t88yk9-5" value="教师管理" style="rounded=0;whiteSpace=wrap;html=1;" vertex="1" parent="IPWFRe141v1Tq7t88yk9-1">
          <mxGeometry x="240" width="120" height="50" as="geometry" />
        </mxCell>
        <mxCell id="IPWFRe141v1Tq7t88yk9-6" style="edgeStyle=orthogonalEdgeStyle;rounded=0;orthogonalLoop=1;jettySize=auto;html=1;" edge="1" parent="1" source="IPWFRe141v1Tq7t88yk9-5" target="IPWFRe141v1Tq7t88yk9-7">
          <mxGeometry relative="1" as="geometry">
            <mxPoint x="300" y="100" as="targetPoint" />
          </mxGeometry>
        </mxCell>
        <mxCell id="IPWFRe141v1Tq7t88yk9-7" value="" style="rounded=0;whiteSpace=wrap;html=1;" vertex="1" parent="1">
          <mxGeometry x="20" y="90" width="730" height="40" as="geometry" />
        </mxCell>
        <mxCell id="IPWFRe141v1Tq7t88yk9-8" value="" style="rounded=1;whiteSpace=wrap;html=1;" vertex="1" parent="1">
          <mxGeometry x="30" y="95" width="100" height="30" as="geometry" />
        </mxCell>
        <mxCell id="IPWFRe141v1Tq7t88yk9-10" value="" style="rounded=1;whiteSpace=wrap;html=1;" vertex="1" parent="1">
          <mxGeometry x="610" y="95" width="100" height="30" as="geometry" />
        </mxCell>
        <mxCell id="IPWFRe141v1Tq7t88yk9-11" value="" style="rounded=1;whiteSpace=wrap;html=1;" vertex="1" parent="1">
          <mxGeometry x="490" y="95" width="100" height="30" as="geometry" />
        </mxCell>
        <mxCell id="IPWFRe141v1Tq7t88yk9-12" value="" style="rounded=1;whiteSpace=wrap;html=1;" vertex="1" parent="1">
          <mxGeometry x="140" y="95" width="100" height="30" as="geometry" />
        </mxCell>
        <mxCell id="IPWFRe141v1Tq7t88yk9-13" value="" style="rounded=1;whiteSpace=wrap;html=1;" vertex="1" parent="1">
          <mxGeometry x="250" y="95" width="100" height="30" as="geometry" />
        </mxCell>
        <mxCell id="IPWFRe141v1Tq7t88yk9-16" style="edgeStyle=orthogonalEdgeStyle;rounded=0;orthogonalLoop=1;jettySize=auto;html=1;" edge="1" parent="1" source="IPWFRe141v1Tq7t88yk9-14">
          <mxGeometry relative="1" as="geometry">
            <mxPoint x="414" y="170" as="targetPoint" />
          </mxGeometry>
        </mxCell>
        <mxCell id="IPWFRe141v1Tq7t88yk9-14" value="批量新增教师" style="rounded=1;whiteSpace=wrap;html=1;" vertex="1" parent="1">
          <mxGeometry x="364" y="95" width="100" height="30" as="geometry" />
        </mxCell>
        <mxCell id="IPWFRe141v1Tq7t88yk9-17" value="" style="shape=image;verticalLabelPosition=bottom;labelBackgroundColor=#ffffff;verticalAlign=top;aspect=fixed;imageAspect=0;image=data:image/png,iVBORw0KGgoAAAANSUhEUgAAAoAAAADfCAYAAABmimIoAAAgAElEQVR4Ae2dh5cU1bq3+UvuXet+9zv3u56jRz3mY84RcwADRtRjABUVUIKCimDGhBJEUCQHyTnnnHPOOWf6/daza96hpuie2NNneubXa+2p6qodn9pd+1fvu3dNrU8//dRKCm3atLF4+OSTT0xBDNQH1AfUB9QH1AfUB9QH/j19IK7LfL8kPRc/X6tdu3aWLrRt29YUxEB9QH1AfUB9QH1AfUB9IP/6QCZt5yKwVufOna1///42cOBAGzBggIIYqA+oD6gPqA+oD6gPqA9Usz7Qo0cPa9++fTDuIQJrrVixwk6dOmVnzpxREAP1AfUB9QH1AfUB9QH1gWrWB06fPm07d+60fv36FXp3ayH+UqmU6SMCIiACIiACIiACIlA9CaD1JkyYcFYAYvmTAKyeF1utEgEREAEREAEREAEnMHHixLMuYAlAx6KtCIiACIiACIiACFRfAi4AWTVcSwKw+l5otUwEREAEREAEREAEnAACkAUgQQAyMVAuYEejrQiIgAiIgAiIgAhUTwLMAZQArJ7XVq0SAREQAREQAREQgbQERowYYU2aNAmhliyAaRnpoAiIgAiIgAiIgAhUKwLjxo2z1q1bW6tWrUwCsFpdWjVGBERABERABERABNITGD9+fPhXvh9//LEWgaRHpKMiIAIiIAIiIAIiUL0IuADk/zdrFXD1urZqjQiIgAiIgAiIgAikJYAAxPoXLICaA5iWkQ6KgAiIgAiIgAiIQLUiIAFYrS6nGiMCIiACIiACIiACJRNwAfjRRx9pEUjJuBRDBERABERABERABPKfAAIQ8ScBmP/XUi0QAREQAREQAREQgVIR4DUwEoClQqVIIiACIiACIiACIlA9CORUAPJv5vxfzcX3HaWf8+/aioAIiIAIiIAIiIAIZJ9AzgTgmTNnbP/+/bZhwwY7cuSInTp1yrZt22YHDx40zh07dix8J05SCPL95MmTId2hQ4esuHD06FGLr2YmLd8pjzwyBc7H08VRkwd13Lt3rx0/fjzsx89rXwREQAREQAREQATyiUDOBCDiatKkSda0aVNbvnx5EHGNGjWyvn37BuG1bt268C6awYMHB4EVF4GkXbx4sbVr187ee++9EN5//33zED/2448/2tq1awtFJGknT55sv/76q3Xq1Clj6NKlS4iHEEx+EH+rVq22Fi1aGPEQq/H6JePruwiIgAiIgAiIgAhUZQKVLgARSoQTJ05Yr1697IYbbrBp06YFa9rf//738D/oEF0LFiywe++9177++usgCBFdLrIQcSNHjrSbbrrJ6tSpY6+//ro1bNiwMDRo0MBeffVVu++++8L5mTNnFqYl77Zt29ptt91mjz32mD3xxBP25JNPFgmPPvqo3XLLLfbpp58GC1/yglEPrJUvv/xyqP/AgQODRdHrl4yv7yIgAiIgAiIgAiJQHAE0BAG9E9c8niZ53o9na5sTAYjLd8qUKcFid/nll9uXX34ZrG1/+9vf7MMPPwxu2fnz51vt2rXtq6++Ct8RfQDhg4gbMWKE3XjjjUGE8c+L/e3Vvv3ggw+sbt26QeTNmDGjMC0u3+bNm9vVV19tffr0sTFjxtjYsWMLA9+xDt5zzz2hflj30n2oy9KlS6127XvsgQcesDVr1gShmi6ujomACIiACIiACIhAcQSYAjd37lxD//h0uHh8BODmzZtt1KhRtmnTpkLDVjxORfYRgOgpQi1EFwVm80N+u3btsnfeeceuuuoqu+CCC+y6666zli1bGgIQtyrz9oBw1113hYpMnDjRfv7552AVRHgh4oYPHx4EIJa6hx56yB5++OEi4cEHHwzWOax8WBgRjZTtAvCyyy4LFkLSPfLII0UCwhNh2qxZszDPMBMHrJjDhg2zSy65JFgLyTvbvLLJXnmJgAiIgAiIgAhUTQJoCKa34R1FA2GAcksg2mL37t32+++/G17Hw4cPZ11v5EQAIpxQuLxvBhGIuMNN+9e//jWIMub24fq9/vrr7YorrghC7s4777TevXvbnj17Qtp+/fqFOYBY/Nq0aZM2cO6bb74x5hGuXr06uJ1dAFIu8w+pg1sNk1vmCCLwli1bFgRkssuQ1+jRo+3888+3O+64o3CuoURgkpS+i4AIiIAIiIAIlEQA0YeHtHv37rZixYqgWxCBeE7xWuKhRAdxLNufSheAVBiBxOrZP/74I4g8FoNgFTzvvPPswgsvtGuvvdbq168fzjFHEGGGGkbxsqDjjTfeCPP/EIjETRewKnKc9LfeemsQlJSBJRD3MBY+AGNdZFGIB+pC4HiHDh3CPMSOHTueMxeQNiBkGzduHCyXWBS///77Qktjti+M8hMBERABERABEajeBNAWuH8xLvXo0aPwTSkYozBKbd++vdAqmG0SOROAWM969uwZRN6gQYOCmxYXMPPzEHpz5syxu+++27744ovCV60ABtWLQiYN1jvixwNuW77jSmaLNXH69OmFKhoByMrda665JrifWXgSD7ik44F5hgMGDCiitr0eO3fuNIQfgrRevXrBBb1161bNBcx2r1R+IiACIiACIlBDCKAxeM1c//79g+cTvcMbTfBkZpqSlg00lS4AaRiWM179gkDDEnfRRReFuX64UrHOuYuYhRgsAvH5ezSQ9IjHVq1aBese8VnVixsYdzHWPr4TWB18++23BxVNHqTDjApYTKzAxZUcD7/88ksQdNQN4Tdr1izbt29fEeiIUCyYCFAsllOnTg1uZiySWAupP/XURwREQAREQAREQATKSgANsXHjRuvWrVtYKMti1sp+73BOBCAq9oUXXrCLL744zJ9jLh5zAhGAyVXAzAVEvCG6XFS5AMT6dvPNN4dXuiD8cCFjzeMVLwg/XMCIMlzN5IH7+IcffgiLO3hXIOUS/L2BbF955ZUgSpnTxzksiqTH2kf5BAQeLukrr7zSnn322WCRxPLHK2VYULJkyZIigrGsF17xRUAEREAEREAEai4BLH1oJaaqtW/fPkxTw4AV10LZppMTAYgLF3824uqf//xn4XsA0wlALICsCua9ez6HDwHIO/pYGPL555+HuXfffvutXXrppcECyFw8hF6TJk3CohImTiIAFy5caLxsmhXCrPRFQPIuQd4XeP/994eAcMQiySIRjhP3s88+C0uvAU8+XBTeP4jAJE8uFMp86NChwSqJ9XDHjh1F3MbZvlDKTwREQAREQAREoPoRQFNs2bIl/GOMIUOGhNfUMf+P9yNXpoex0gUglworGiKOOYDMscO0iVsWAcjrYFC5rArGBcw7Avl3cbh0WS2MOxaxxf6LL75ozzzzjD399NP21FNPBXcsIpD5eH6cF0LzyhjKIzC5krJYXcMLoBGSrPJFXLLEmrrwAmpeU8N34jInEeEHeN73x5w/hCuq3P3xtAmRigUTEYm/nvSVqdarX7dXi0RABERABESg5hJAS6BHMCgxTQ3vIpqHxamdO3cOBij0CPGy/al0AUilEUVY9fBt46JlkQb/+o3XwCDq/vzzz7DaBTcs8+wQZbiMEYEIMkQcVj4sfKzCfffdd+3tt98O7+PDKod44ziBOOQXN51SPlY8/nsIVkBeeghwBN6iRYuCJRDrJIKRuF5fFqa8+eab4b2FLDJJ/p9iLgrv8GEFM+KVi4WKRyTqIwIiIAIiIAIiIAKZCKCP0BX8cwpee4cucrGH55R/gNG1a9cwN9CNT5nyKs/xnAhAGsISZ/5lG/+RA7MmjcUCyLw6XuyMAMNNy3/zQMRhVcMEylw80mIpfOutt0JAlCHmsP7x+hcsdH4Oly9uYiyKiE7/AA+47hKeP39eeLkir37h5dJY8hwwF4W3b5Mn5yg73Wpf4iEiWRSCYKX+vNAxXq6Xr60IiIAIiIAIiIAIOAEsffPmzQsLU1lLEHf3ujhkRTCWQYxhHMvmJycCEJcq1jzm0WG9Q9TRIAQhr22hgQg2FoA899xzISAIscAhxHAL49qNBxZvxEP83GuvvRZWAuM+9g/gCOvXrw9qe/XqVUF4Ij5ZzMG8QSx/Ho85fbh1Ud/Fze8jPheRulJP3M8SgE5dWxEQAREQAREQgXQE0AorV64MHkr20RPxD9/xVs6ePTvopvi5bOznRAAirJYvXxEsZRs2rA8mTubLsUoX6yDncb8iDLEOskKY/3uHsOI8+0AqbVi1alUQbZhSkx8XeLiIR44cGQQbr4gBssP3OLx9O91FSZcn1sMDBw7YoUOHCvNJxtN3ERABERABERABEXACrjdcf/jx+NbjxI9lY7/SBWC8kslGpGtwMo6n9+Ol3Xq64rbxvIqLp3MiIAIiIAIiIAIiUJ0I5FQAVidwaosIiIAIiIAIiIAI5CsBFp+wKJZ/tFHLF0Hka2NUbxEQAREQAREQAREQgZIJsGaBdRkECcCSeSmGCIiACIiACIiACOQ9gTFjxoS3nPCmEwnAvL+caoAIiIAIiIAIiIAIlExAcwBLZqQYIiACIiACIiACIlCtCEgAVqvLqcaIgAiIgAiIgAiIQMkEJABLZqQYIiACIiACIiACIlCtCEgAVqvLqcaIgAiIgAiIgAiIQMkEJABLZqQYIiACIiACIiACIlCtCEgAVqvLqcaIgAiIgAiIgAiIQMkEJABLZqQYIiACIiACIiACIlCtCEgAVqvLqcaIgAiIgAiIgAiIQMkEJABLZqQYIiACIiACIiACIlCtCEgAVqvLqcaIgAiIgAiIgAiIQMkEJABLZqQYIiACIiACIiACIlCtCEgAVqvLqcaIgAiIgAiIgAiIQPEEUqmUjR071lq3bh1CrYMHD9rhw4ftyJEjCmKgPqA+oD6gPqA+oD6gPlAN+wBab+TIkWcF4IkTJ+zUqVN2+vRpBTFQH1AfUB9QH1AfUB9QH6iGfQCtN2bMmLMCEOGHWVAfERABERABERABERCB6ktAcwCr77VVy0RABERABERABEQgLQEJwLRYdFAEREAEREAEREAEqi8BCcDqe23VMhEQAREQAREQARFIS0ACMC0WHRQBERABERABERCB6ktAArD6Xlu1TAREQAREQAREQATSEnAB2KpVK6ulVcBpGemgCIiACIiACIiACFQrAqNHj7aWLVtaixYtJACr1ZVVY0RABERABERABEQgA4Hhw4db48aNQ5AFMAMkHRYBERABERABERCB6kRALuDqdDXVFhEQAREQAREQAREoBQEXgPw/YFkASwFMUURABERABERABEQg3wlIAOb7FVT9RUAEREAEREAERKCMBCQAywhM0UVABERABERABEQg3wlIAOb7FVT9RUAEREAEREAERKCMBCQAywhM0UVABERABERABEQg3wlIAOb7FVT9RUAEREAEREAERKCMBCQAywhM0UVABERABERABEQg3wlIAOb7FVT9RUAEREAEREAERKCMBCQAywhM0UVABERABERABEQg3wlIAOb7FVT9RUAEREAEREAERKCMBHIqAFOplCnUPAZl7JOKLgIiIAIiIAIiUMkEciIAz5w5Y8ePH7cjR44o1EAGx44ds9OnT1dyV1b2IiACIiACIiACpSWQEwF48OBB2759u23btk2hhjLYt29fafuk4omACIiACIiACFQygUoXgLh8d+zYYQcOHDAsgXIB1zwX8NGjR23z5s3h2ldyf1b2IiACIiACIiACpSCQEwGI9e/QoUOlqI6iVDcCCP4TJ07Yxo0bJQCr28VVe0RABERABPKWgARg3l66/Ki4BGB+XCfVUgREQAREoGYRkACsWdc7562VAMw5chUoAiIgAiIgAiUSkAAsEZEiVISABGBF6CmtCIiACIiACFQOAQnAyuGqXAsISACqK4iACIiACIhA1SNQYwUgwoTgH/8e3/o538bPlbTvadiWFJfz6T7xdOnOF3esLGmTcZPfiyunpHPkpUUgJVHSeREQAREQARHILYEaKQDjAsf3eUUNAbGyf/9+4+XFnIt/+M4LrQnsexpecuzBj3naTPEyxU+WR32I6/nFz2faJ+6pU6cKX72TKR7HiUsZBOrOd8LJkyfTMigur3TnPH+tAk5HR8dEQAREQARE4N9DIC8FIEIFgePCCJFR2g9xSffFF1/YtGlTQz7kNXnyZPvyyy9t/Pjx4RzfOe6iiPz5/vnnn9sPP/wQROC8efPs+++/Lwzfffdd2B86dKjt3r07VImy/vjjD+NcuvDtt9/akCFDguhMtoGyW7Zsaa1btw7l8T3Th3ZxnkCZv/zyi73wwguhHnz3c2yJ64Fz1Lddu3a2dOlSW7duXRCO/fr1C2Vznrjl/ZAWcSkBWF6CSicCIiACIiAC2SeQlwIQIda5c+cgrMoqUBAkpPntt9/s1ltvtZEjR9quXbuC+KtXr561b9/enn/++SD0EEaIPF5k7ELmgw8+COf4t3aIxccee8yeeOKJIKA+/fTT8L1p06a2YcOGkAZL2iOPPGLvvPNOKAOR+dVXX4XA/htvvGFvvfVWWoGEWFu/fr098MAD9s033wQBmq4LUDfiwoVAmbx8+8EHH7Sff/45fOeYn3dmpNm7d699+OGHoT4zZsywp556yubMmWPdunWzRo0ahbQeP13ZJR1zbhKAJZHSeREQAREQARHIHYG8E4AIiilTptg//vEPu/HGG4NYQciU9kN6AqJuwIAB9tprr9nEiROtbt26ITz++ON2yy23BCH3r3/9yzp16mR79uwJ/8quR48eIc6zzz5r/fv3D8Jx8ODBwdI2bdo0830segguymH78MMPW/fu3W3BggUhLFy40Ah879Kli7377rtBMCbbQXrEF4KM9i5ZsiQIPY7HP7xkm7q9/vrr9vLLL9tLL71k1P3ee++1m266KbSR4y+++GKIgwClTQjCCRMm2JtvvmljxowJPGgbwrdt27ZBCFPPxYsX27p1a0PZ8XJLs09dZQEsDSnFEQEREAEREIHcEcgrAYiYIAwbNiyIqmeeeSZY4ZLCqSR8iCrm+B0+fDj8b+I+ffpY48aNg7UNK1iLFi2CCOL/1/J/jBEwq1evDpayu+66K1jkPvvssyAK165dG+Jfd911dvfddwf38datW88RgLfffnuwyGGVS4aPPvrIli9fHlyvSXHHd6yNpMeK6HP1vI2cpy2zZ8822oHbF6GHsOzdu3cIvXr1sldeeSWUyzEsl952LJpvv/12EJfU47bbbrObb77ZrrrqKrv00kvD9zvvvDNYKeFW1g/1kwAsKzXFFwEREAEREIHKJZBXAtBRICgQbB9//HGwYpVFACJI+Nd0WOn+/PPPIJxWrVoV5vX99NNP1qpVK3vyySetSZMmwfr366+/hviUQbnMycM6hut07ty5IQ7iqnbt2sHVi5jq2rWrLVq0KMzbwwJYp04dQ4StWbPGEIzxwDEsbMzB+/3330N7vJ3UlXKxwl155ZVBjC1btixYBT0OW4+HRW/EiBHWoEGDIOgomzrzf5hxazMXkWMIOayGPXv2tBtuuMFwWQ8aNMheffXVYBFEHNJuLIMseCEN9aCcsn5IIwFYVmqKLwIiIAIiIAKVSwDPH5qGUAthUJ5Bvrgqkl+2/xcwggTR0qZNmyBmylJnhAyu1Pfff99wd7LAAusbog7LGfPt2GKlQ8xh6du0aVMQQIgh0nEcaxsClPQDBw4M7l8WTuCKBSbiCgsidUVU4pJlrh37Hoj33nvvBcse4mvUqFFF3KwuOqkbljriU6avQk5yhwPCFLc2c/jceslFvv/++23nzp2FQg7h2bZtO3v00UdDvZhTiXDFeolgw2XN3EQXjORdFs5eN9JIADoNbUVABERABESgahAYPnx4mIKGd7FKCkAXHr4FWyYBGI+TCa/HwcqFOxRBRX7MCcRChhsUKGxxq3IOyxrCCNcz1jzcwAg3LHN9+vQNK24ReFjMEIaYVVlYQp7btm0LlkKEIaLKAwLt66+/DmlYSUyZLJSgPP8gyLH43XfffTZ//nybOXNmEGys1s1kkSMNeSFiEZSIWxapUG48DauUsVKySASByTxI5gNOmjQpBEQqi2JYDc2cy1mzZoU2wa8sH+JLAJaFmOKKgAiIgAiIQOUTcBcw432VE4Au1nDRshrWxRGCDIsYr3JB8CBssIph1eI1JqURKcyrcyueC5RPPvnEeC0LCzoQhiy+ILCid+rUqcEihvjDAog1bcWKFdasWbOwWhbLIat9EYa4kklDnbGqsbKYVbwIPoLv48Zm3iBzDomDcMNqSP1pEws1mjdvHqyd1JH3E3KhsCQSjzjJD8cQnh07dgxu34YNG4b64gZ2nqRhH3a4prFyUjZ1IG/qw6IY5gOyD2vi4KouDdt4nYjvfMuaNp6P9kVABERABERABLJHwAUgnswqKQARKbw/j9e2IIAQEYgcFjIg1NgnIMgQPVjW+F7chzwQgIgfBA9CjXf78UoWrF3M7UP4ME8Qq97o0aND/ghMBBliCAsir4jBcsZcQkQhYhArGlYz5vkhRnEPM7cPdypxqB/fscjhwkY08joYjlE2Qo36M0ePeXhY77DUcQwBTJnPPfdcsF7ShqSoIh6CizqwApjVwwg7F4zx+MR1AYilkTojarEwUicWlLCPFZG241Iu64fyJADLSk3xRUAEREAERKByCeSFAESk8QJmBApz3LCM4cJk6wGRgopF7CBsMn0QJJzHQoffm3mAiDLEGa+FQWQi3HCLIuiYm8frWrA6ImSwhlEXBBUCDTHIMSxmTz/9dFjMwXlfaYuAJS3Wxvr169vYsWNDPlgsp0+fHqyHiCziUC8CeTOHkFXOffv2DdZN2kPdEZ6cw8WLSxprn6ejLFzPvI6GtrGQBR4IOQQdQpI2EN85IACp75YtWwqPUxcEKu8BZJ98iV+eD+kkAMtDTmlEQAREQAREoPII5IUAxDXLYgXcmQibdIF34BEHSx4CJ9OHc1jOcPE2aPB6sOghtLDssRIWix4iDWsi7lZW5zL/DusXAop37PEePV69gujEIgdExKK7jTnGnEHEEwKIwFxAXL+IQBaVMN+P9+2xYherm4s4Fsx06NAhiDasnpQbF1/sI/JwM1MX5jHynTyYZ9isWfMg3HA9u9WO+rF4BX5YU3FrU3/KjAtAL4d6U7YLwOJ4ZuLsx8lTAtBpaCsCIiACIiACVYNAlReAiA9W7TJHDZdscYH/6sF8QRcy6RCTH+KMV7cg7FauXBHEDvMJEXtY/viPHohOBB1WRVyzuJg5huhCJJKPB6yRLCDB3Yu1jOPJOnCMeLymZfnyFcElzMuZWWzCceITEIqIT9qJJTCZD22iDIQi4g3XMWISKyYilH8Bx7sM3ZVMucRHDGIZpA1YLd3ih+hlEQrlelmkoS20P11b0nHNdIw8JQAz0dFxERABERABEfj3EKjSAtCRICLKEjxdui354DbFYoYwIjDfDhHFy55XrlwZAuc94HbGZYsQxV2LG5Z8+LBlbh7/es2FXLpyPS7WNdIj0ljVy/xD6uAf8sKih4XOy/Bz8S3nqDdxaQ/5UH8shulEm9dz8+bNoV0+fxBhi0WS9vmHuBwnz+Lq4PGL25JeArA4QjonAiIgAiIgArknkBcCMNtYECXpAsIpXYjHzSSuPE5p6kpcL6cs6ZJ5e9rkNhkv/j0el+P+PR6nuOPJeCV9J38JwJIo6bwIiIAIiIAI5JZAjRSAuUVcs0uTAKzZ11+tFwEREAERqJoEJACr5nWpNrWSAKw2l1INEQEREAERqEYEJACr0cWsik2RAKyKV0V1EgEREAERqOkEJABreg+o5PZLAFYyYGUvAiIgAiIgAuUgkFMBiBjQp2YRcAHISmNd/5p17dVaERABERCBqksgJwKQ16PwHzt4XQmvN1GoWQz47yrx9wxW3Z+DaiYCIiACIiACNYNApQtAMCL4eK8c76DDEqRQsxgg/njvoD4iIAIiIAIiIAJVg0BOBCDvvPOXLmsbvXy6pnGgD+gjAiIgAiIgAiJQNQjkRAAy9e/MmbMvP/aXIGub/sXT1ZGL5v9VjR+8aiECIiACIiACEMiJABRqERABERABERABERCBqkNAArDqXAvVRAREQAREQAREQARyQkACMCeYVYgIiIAIiIAIiIAIVB0CEoBV51qoJiIgAiIgAiIgAiKQEwISgDnBrEJEQAREQAREQAREoOoQkACsOtdCNREBERABERABERCBnBCQAMwJZhUiAiIgAiIgAiIgAlWHgARg1bkWqokIiIAIiIAIiIAI5ISABGBOMKsQERABERABERABEag6BCQAq861UE1EQAREQAREQAREICcEJABzglmFiIAIiIAIiIAIiEDVIZATAcj/tj1x4oQdO3ZMoZwMjh8/bqdPn646PUc1EQEREAEREAERyFsCORGAhw4dsq1bt9rGjRttw4YNCuVgALu9e/fmbUdTxUVABERABERABKoOgUoXgKlUynbs2GG7du2yw4cP25EjRxTKyABuBw4csPXr1xs89REBERABERABERCBihDIiQDcvn277d69W8KvjMIvLpYRgWvXrpUArEhvV1oREAEREAEREIFAQAKwAqIsLtAqe18CUL9YERABERABERCBbBGQAJQAzFZfUj4iIAIiIAIiIAJ5QkACUAIwT7qqqikCIiACIiACIpAtAhKAEoDZ6kvKRwREQAREQAREIE8ISABKAOZJV1U1RUAEREAEREAEskUgLwUgCyIOHjxY4mtliFfa4Is4ShPf4ya3pOWdh2yT5yr6nTy1Cjhb3V75iIAIiIAIiEDNJpCXApAXIk+aNCm8XzCTsNq5c6etXr3aVqxYURh4jx7Ccd26dYXHOM9Lll208coaji1fvjxjoPx05ZLPggULbNu2bYX5pYtXnmMSgDX7h6rWi4AIiIAIiEA2CeSFAET8xAMiDgGISHOLW/y8i6WZM2cGQbZ06VKbM2eOzZ49O7xQefr06TZr1ixbuHBh2M6bN68w//uAXvEAACAASURBVFWrVtmMGTNs0aJFtmTJknMCwBB46UTcvn37bPHixTZ//rzw4ut0ccp7zNukF0Fns/srLxEQAREQARGomQSqvABE+CxbtsymTJlikydPDgHxN2bMmBD8GFviYL0jzZo1a4IYwxKISORf0CEA9+/fb9OmTQv/VYP/roFbde7cuYUCcOXKlTZ//vzwr+v47yXJADD+rV06IUe5vPAacYmQRKimi1eeYxKANfMHqlaLgAiIgAiIQGUQqPICELGECNuyZUtw1W7atMk2b94cvnOMff8fw3xHgLkARBBOnTo1WPQQiFj24gIQgZZOAAJl/PjxNmHChLQBCyD5UE5SzCE2sQJifUR8pouTTFOa7xKAldH9lacIiIAIiIAI1EwCeSEAET8EXLZY+BBZiCaOIcRwBTP3Lu4OxgKIa5f5fljssCJimSuNACQv5gIy1y9dQGjOmDE9rYWP+LibsVAiLrNlBZQArJk/ULVaBERABERABCqDQF4IQBd7zOXDiofr1o8huHDhuuvXjyMAceXi+sVix/mkCzidBZCFIljvyBMhGA8ISvLkPFtEGeV54LsvBOE88bP1P5AlACuj+ytPERABERABEaiZBPJKACKucM3iEnaht3PnDps2bWpwCbsgY4sAjLuAfWEH4tHnAMYFINZDzpE3IpC5gPGAgCQP3LusLt6xY0ehJdIFYLQIZFGwNiI6iU9ebrH0eOXZSgDWzB+oWi0CIiACIiAClUEgbwQgoglr38SJE4NbF0HkAg6hhfhyYeUCEJcx7l+scFgC9+zZE9KkE4C4hplfiKs4XcD6OHbs2GAZ5DziMG7doy64m7EcMi8R0edWR0QldfL6lWcrAVgZ3V95ioAIiIAIiEDNJJBXAhBRhfsVYYcgQvQhuHhdC99dZLH1VcCIL+IxLw8RiFBzAYigRMiRhwtARBtuX9zFWPvi7wMEFm5djmEFdAFIvbD4kQ/psSRSB/InH8Qj+ZdH+Hka8tOLoGvmj1StFgEREAEREIFsE6jyAhDhg8BCuCGsfMEH+1j3eCUMFjfOE4hLQAAiFLHq4TpG9BGwArLlPJY8hCECjXI8kC8ikFe5IB49T1zK5OfxvG6IP+b8LVy4oNA9jXDjPAtGKC8uDF3UlWVLXhKA2e7+yk8EREAEREAEaiaBKi8AEWwIMaxxBCxqvMiZFzWzqhe3LGLNz7tlDqHIK2AQeIgzziPEEFG+RQQSeF1LXIxhreM4ZSEuseQReJUM3xFjxEcYIvCw/FEHVg77Oc+POLiGKROhGXdVe5zSbCUAa+YPVK0WAREQAREQgcogUOUFIMKLhRSIwPiijOQ+5wnERTSyxTWM4MOiRz6IN6x1CDusgoiqpGBzMYaFEWsf4pB8cP0iAOPz+bA4kg/Crrh3/iECiTdv3txQDy+jLFsJwMro/spTBERABERABGomgSovABE+CCh38Za0JS5psOIR/LvnwxZLXWkscZ4GAYmAw9pHfi7cvBzyYt+Pp9tyHvEYT58uXqZjpJcLuGb+SNVqERABERABEcg2gSovADMJolwfL0ngVXZ9JACz3fWVnwiIgAiIgAjUXAISgLEXOVe2iKtI/hKANfdHqpaLgAiIgAiIQLYJSABKAGa7Tyk/ERABERABERCBKk5AAlACsIp3UVVPBERABERABEQg2wQkACUAs92nlJ8IiIAIiIAIiEAVJ5BTAfjvXkhRkTl4/860cNMcwCr+S1L1REAEREAERCCPCOREAPL6kx07doTXsvB+PYWyM+DdhryXMJVK5VH3UlVFQAREQAREQASqIoFKF4A0+vjx4+FFyf5v2XinnkLZGPAOwqNHj1bFPqQ6iYAIiIAIiIAI5BmBnAhAmGC5UqgYgzzrW6quCIiACIiACIhAFSWQMwFYRduvaomACIiACIiACIhAjSMgAVjjLrkaLAIiIAIiIAIiUNMJjBkzxj744IMQap0+fVqLDGp6j1D7RUAEREAEREAEqj2B0aNHW4sWLax58+YmAVjtL7caKAIiIAIiIAIiIAJmY8eOtQ8//FAWQHUGERABERABERABEagpBCQAa8qVVjtFQAREQAREQAREoICABKC6ggiIgAiIgAiIgAjUMAISgDXsgqu5IiACIiACIiACIiABqD4gAiIgAiIgAiIgAjWMgARgDbvgaq4IiIAIiIAIiIAISACqD4iACIiACIiACIhADSOQUwFYmv8FnI4/6c6cOVPql1SXVE66vOJp4nWIH4/vEyf+vaT9eJ6e1utBWvZ5EbcfS8bP9vdUqD9tMDuTCBwLIUOhnoY8SvoQx/OPxz+dMjt1JjqXLo94/bwuhfXy+rEtSByP7+XFt542XVkVOeblxsvy/cJ6pymAdIXx0pxPHiI+vAjkW9pPYRkFrJxDkW2GzMpSR4+brmoccxYZiirz4cI8E32X9ha2LUOuhXWN9Z8MUc85HMo1M/ovwdvlx89JQNsL4hO3pE/IJ029PH/flpRPac97ed5PkltvX7r8OOe8051PHqOsED95ooBRvCxv5znbxPUOaYiU5sPhcJ34zaQ5nzxE3QqvqV/b5Lagrsm0+i4C+UggZwIQkXPo0CHbu3ev7dmzJ204cOBAEEFJkKTdsWNHCCX9txLiHjlyxHbu3GlHjx4NIu3kyZO2fv16O3HiRBBYK1eutOPHjxcphnPbt2+33bt3hzQIsVOnToU05Eedt23bFuJwjjwPHz5c6kBe8Q95rlmzxg4ePBjK27dvX/i+ZcsWYz8ZP542G/vHT5ntPmK2q5hwrGiVQ7HcSA8cN1u7z2z/8ZLFCDfUbYfMlu9OFRksN+w3m7HFbPfRc2/OlHHitNn6/dF5RM/hE2Z7jp4bDp88OwjtPVZ8e6gveWXrQz3JsziG+4+ZnUxTJgPXxgNmmw6kP5+sI4PT0l0pm7/djDaXZkCjrbDffsiMa0ld4R0PMKMu6T5+DbYfjhini+PHiLv1kJnnR5aEcO1ORscpn/6QjQ88aEdx7A+dSF8edVi1x2xHQbsyVYkyaBe/lRBOR6w4tminGX344IkoUBaMSZP8cL3mbU+l7QfxuCTddyy6Zscpq+AkW77DD76lvf7xvNPtk++Rk8VzhHG8Lp4Pafk98hul7Zn6kMdnCx/6CPePINwK+gi/D/Igv8JzqegYfe/k6agfHczwWyNNun5FulV7U7ZgR1HhSdnJ68SxjQdStnJPxDndvYZj1DOb95A4H+2LQK4J5EwAIty6du1qbdq0sc8//9y++OKLIuHTTz+1H374IYg8RFz8g+Dq2LGjNWrUyJYuXVqsOCLujBkzrF27dmGLyJowYYLdf//9xj8+nj9/vl111VXG/8Bbvnx5EKWkQXh9/fXX9vvvv4f8V61aZePHj7ehQ4dar169Qp3ffPPN8MbsEydOGue7d+9u3bp1KwydOnUK9fz1118LjxGHsHHjxiA+t27dagsXLgz5vvjii9anTx9btGhR+A6btm3bBi7Lli0rtp1xPmXdB++srWZvjTJ7f7xZy4lmH8RCywlmr48wm7zx7I3ay+DKTNtsVre/WftZ0eCRuFweNQxgDDBfzYziM5AwwHFT/21RdKzfcrNth6PBmLjkxQ123PqUXd7ZrNEos3X7zAauMPt4shl1azrW7MOJZp9MNhu+OhqAScOxxmPObQ9tazLW7KsZZhsOnB1YCytajh04MOh8Pt3s3TFmLSacy/C9cWbtppmt2Zt+wKFeD/WxIOrIKyPHlBlCkrY9PTC6LrSDgIj0gJhEEJEPAxyDM2mo47xtZj/MMXtnjFmz8WatJpm9Py6qtw9otIl0BOpDevrIlzMi4XG6wGLrcYgfQipq4/ODzT6ZkrJ5283mbjObvdVs5Fqz72dH5fw0NxpcSVPRD32l4YioL5zTfyeaNRpt1mNxgSBNFHb0lNmTA81eGW62cX968UAddxxO2fA1Zr2WRqH3skiMIBwf65eypuPMvplp9vXM6LdAXPq384chYeomsws68BBkBkOOOUO2zhEh1HGeWf0hKRu6GtFoNmdb9Fvtuwy2UR8ftjpKn2hWmb9SNnm9Pfrc+wBM+a3BmGtJneMfvg5YAYeIM+KM/DJ9ODd7mxl9pP2son2EOsCRftl5fiS64TRqrdlTA80mbogeOGHDbx/u3Bf4fTUeGzFDGFMG9xgeerYc4oEpOv/CkOhBa/PB6H7Fw+vinZHYJA2ijnRtppg1HGnWaV50r/loclQnymQf/lyHnfzGMjVUx0Ugjwj4/wJu2bJl5f4rOCxar732mr333ntBCLow8u1nn31mzz33XBBW6QQgFj3+afHbb79daKVLciYdVrmRI0caDerbt6998skn9vTTT9vll18eti+88IKdf/75Vq9ePWvSpEkQgVjhEIatW7cuFKGNGze2++67zxo2bGgff/yx/fLLL0FArl27NlgP586dG8Qs5wgfffSR1a1b1x588MHwf/X8OOUj7BCuiODevXuHdj766KN29dVX20MPPWQvv/yytWrVKpQ/ePDgsN+jRw/DIuof2obVMcnGz5dly00PQXVjt+gm/8PsSBwgEAgM2Bd3NPtlQXRTjd/s2McS0W1hdPPvuSR6sk+WTzwGWga95hPM7u9ttnBHJPw+nGT22gizq7ua1R0QCafWk81mbo1u/giae/6IhBUCqe3U6MaLEHlxSFRvBi0E3dh10Q0cqwzt4Tz1L9Km2dGNncGKQZX2V/TjQpX6PTMoGsCcnzNEdNLu6ZvTDKAFAosBETGCcEtXL6pK20asMbunp9ndf0SijMHvteFmbyLix0UDOJx/XXh2IEREUDdENgMe9br6lyg9Ay4i/s4eUf7w4Hot3BkJNx4QEPqI28f7m/VZZjZzSyRGOMe1pL5wYPDsv9zs5u7RQHlvryjfyzqZ/aOj2QO9zRqMMOu26KyFp6L86YPnd4jaEq53Qd8N12B2JKwRB5sOniusEby04eG+0QBPXskuQbvoKwjJyzqbXdvV7KkBUX/m+H29UoEL1/+KzmYP9o74Ijwoc+72s6ymbDK78Gez5uOLMkRY0dcpi4BFsf6QSOA8+2d0re/oYfbf35ld96tZvUHRww2CKCnIysOTPNrPNKvdM7puRTjONvtuttl5P0bX1h8SvBx4YR3k4YLf1fj16S2FxCcuIgthxe+Bh07KpO9d/LMZ/YRr8eZIs55LzwpA2MD/kb5mvZdGQvXlYWZvjDS7t2f0MAMvRBviDtG4Zl/0sMFvgoeXW3+Lrh2/RYQj7X1rtNkrw8yW7IrS/LEkZav2mnEP4jfFwymiHkHI9b3t9+ghiN/MkFXFP/Q6H21FIB8IoDcaNGhgr7/+euUKQMTLq6++WigAf/vtN4sHLIL169cPAhCLXFzosI94QnzdddddNnDgwLRz5SgDYYb4e/LJJ4NgxOqHFe+xxx6zQYMGBRF36623hv1169YFFywWQ4RanTp1DKtcv379whbRh+sXdy3u5GPHjgWXMHWhjmwRtgRcyD/++GMQgriKqYufIx5h//79ofwhQ4YESyHlffvtt8ZF6NChQ+CDpRML4k8//WQbNmwI5biFcsCAAcG1HWdTnk7GwM3TO4MKFqIvphcN3NQRgF0XRta4pDDhO1Y7buQvDo0GxXRxlu2ObtIMYgyiiBYsZTzVMxBggXm0n9kDfSKL4/gN0ZM7lgBu+ohLhMd9vaKn/D+WRIPA7b+btZ0WDQpYqSgbkXRDt0jwUP9km7jh1+kfDeoMfMkBv6wcKZNBkQECgfTp1KJlUgfEWRCAW6K48TLZJ/38HREbLB/pXMUcw4X16vBIsGFR7DDX7Mc5Ztd0NXt8QLSPdQ0LCUKRumEdhDUD358rzQatjCyHsBy9LnL9YeXlPOyoz5aD0fVClD432OyZP88KOdqBKOEcAUsidaMNDLrP/xkN1lghESiTNkZ9iwEasUgZDNAInWx8EG1//THiku56U1/ahohIXm/44I5EGN/YPeLBsXjV2OcYbkT6DtYfXK9YxtpNjSyAvy82Q9whbmFKXNpIn6VvF3IcZHZJJ7Mru0QMnyvg+K9hZvRp6odFkwcu+j38sPyxnbzJ7KKfzL6dFQksmIf2xCtbTqDUFUGEEOO3nOT4+bQCAbgialuySPis22+GhY3fNsKXY8kPdUY08zACR/qL9xEe2BB+HPM+Qh6B/ZnofoAQ/XVB9Ht6elB0z+EeAOMnB0T3DsqmL+LyxXKJ2OYhEfF27a+R+KMs7hEc67XkrOeAByv6Ah4EfhNYCLE+coz7G9cE6y7XmPZmsx8nWem7COSSwHfffWdXXnll8IrWQqRUVFxkqrwLwJdeeimIJKxi8YAA69y5s02fPj1Y46hL/EO9mBv3wAMPBDGH1Q5hFP8gwrDkvfvuu1a7du3wT45x3yIImzdvHly833zzjbVo0SJY/6ZOnRrEHaIRC97tt98erHMITOqJMqZOuHmxVCJYcScny6UO1BcR9+yzz9qff/55znxF0iDocHXzz5cRu1ghmzVrFsp+6623gsXxlVdeCRZAeOAqRkSSNyIVUcuxdOXHOZS0z811wHKzq7qYvTQ0GiiDa4Wn5ILA4IkFiUGOwTL+4R7PEz1iBGHHIIb1KH7vpwyeqj+eYnZFFwvu3J/nRdYlxAvWO1xp3GSx1GAlY4DlRot1YMKGVLB4dV0QWVawkjGIIhgZSOr0M7vqF7PBq6LBwgXgw30ytweXNZZPRBeDRUU+tI88sPwgqhhsnB1b+BGwWiK+sDgly2Qgxx1+5S/RwLQjjWsJ1xZi9qG+kUBAGDD/DFGIsEaIsY+FD2sr86EQE1hMGNix4DGoYf1A9GNBRKDgqrzlNwvWFAY22kNaBmYGv5FromuB2x2msENccpyAwKM9zIFD/HKNuy86O4hzPRAXrw+PXHEuwuJ9pCL8EYDn/RA9TMA5zt75Y6XGbYt1iPb5h10GccTV3zpEDGl7PI7HpY2I7zZTI66IQdznuIDp91hJsUBhiSZP8mAeGd+dFS5O+iuWMqYsOEficM0QjtO3RFYwhDTHKJf8sK5e3sms0/zoGPnHmuLVLNeW/LlGN3WPRG6SI98Rhvwm6cNc03jZiHn6ERY5fovj1kdx4pUhPn2chzrKoQ+60GPLca4X1k8XtuSLdY5rh2WZ/g0TLHo8lHDPou9zXbgv0L99+gNWVX5rzC+mHxMX7tTt0ylm1/8axecaIPT4rdxV8JtgSgYWQK4r1mzKIj4WXqyvCMUeBYI9Ww8ycVbaF4FcE0CDXXTRRZUvABEyiBzcrFjAcNOOGjUqbNknIJwQR4g04vsH8YfoQRziOr377rttxIgRQRh5HLbEw1qHJQ4xhwWPOXZPPfVUcB0j/BCCiC6EJOVRDnP6RowYabfcckuw/M2cOTOISOYNcgx3MKBw8ZIHgiz54RgC8N577w3CEZf2xIkTCxd5UH/c01j7sPLh7salzZzDP/74I2zh06VLlyA2sUKy8IU2ufhFfOIW5ntFPgwi3NB5ikZcIAiY2+KB74TPppn9/adImMXL80EOCxcCEAHHzTReLfaJx/w94vDkjbUEFwo3bVyV3HyxDASL0uhoztmMLakg6hCUuGGwOjFxnHlYuBYRkQyGXeZHN/bBK6NysDLc9lt0c/f6J9uDlY0bOa4u4lfkQ/sYpBlcGGSYb+blsfU6YNXBQoJISg6gDMB/ropc14hbBp4wwMcuL8KEARgRgXsTixqWo5eHRtcGCxZuMawhXAesbUxWx0ro7itEH3lgYcUlhrVm9V6zFwZHg9qDfSKxwQBMoF2IEsTHoBXRQMt8UOoPNwJxqCv5XtrJ7J+/RK4zLMMM+FwzXGi0nevOceZOcc1JV9EPXLBSIyCctfP371xnhAJz8GiXf7h2PGxgWcL9yEMFgpbr4R+iIzInbjSDD9xpK0yxYj3SNxWuB/2Y/oz1FRHiXALDAlY8QCFeEIrsO0fiUCbWWtpxwU/RdUXEwJCAVRY3OvNow4Kew5ELMtmXvN5l2cIERgh8WMAtyZAHCSxqtXtFD3nxawdHHkiwaMIRLriFPQ4M6UP8dmkDljcEnbeDPsJcPrhwH6CP8BBEH+H+BHPKxfWKN4GHLO4HcQFYb6BZg5EFbvdtkdW76bhUePiCOdeOvol4Q4De3TNijLjl4ZP68qBE2xGAiEqs6fyuuFfxu8JzQBv8OnPdaLs+IpDvBNA1F1xwgV166aWV5wJGsCC0cGEi8FjogEBiMQhbrGLMDeQcc+eSVjbEE6t2EY8s1MA9+swzzwRBFRdD7LM4g3mCN910kzHfjzRY5VgUgjBkocn3338f3L24hKnXrl27Q77MyUMYfvXVV2G+IGkef/zxIORwBbMIhYUscXHqHcAFIO0gX9qEBZHyWIHMeQKi9F//+lcQsU2bNg31wv3dv3//IAiZ+4dARbiyapoP7YoHL7M8W+5b3Pi54XJDxX2FlQhXMNsw52tANJcOlwk3RcSAf0jP4MMNmvMMXNwYsRbGByVukAwEzPthDhODG+KLmzqWp5/nRhYnBlWe4HFHc5NltW+XBSn7jMUVYyNxxOCH6MNVjOWQm/d3syLXK+5N2kMdsbYhjLwdCCL2yf+JAdE5RCvzleKCwNtWli1tYyBgsECAwZLyPDCoMceOwYp9LA4M9j5wwBErKmKO9sCRuXJYVHwApT7EoxyEA8INdxQ8KJeBjTmUPxWI4t8WRyKauFhMiEOezKFETMAK9oiixbui+Wj1BqaCpYMyCMRDsCGIsAbiFmQAJC/EEEIQyxniiHp2mHN2rhXlwBurJHO3GHRxUyMCnQ91YEVtRT4wQcAxzwt+hde7oP/Sx9xSBFvci3GmXHtEF32CPLBStp5kdii2upoyEF+4Xq/vFlmJmLuKpRNxzcPI22Oi68ExrguCwlcLY6WFE7wQ3kx7wF05YcNZjsQhPqKdhy3EChYoBJe3CY7/74eC8kZHbBHWC7YXtcaVlSftoz+OXR+5VumjlOn9l33aBF/coAhE+odzJD3iDhbUmf7LPD7uKzwgcJ6AmENkYjnFUo5IJG/vI/RH5u7Gf0NYTmGPcCdvpnvQLxFk/O4RdvAnHyzT9Cl+N1h6WXTEvYgHK+r2SL9IfPJb5OERjwGBOFjN+Q26AIQ7go909F0E6kdTovsHvycsnQj9OIeycld8EahKBBCAl1xyiV1zzTWVIwARLli+ePXKlClTgtBhIYQHXLRYxHCH4o/GQrZkyZJgyXNQCCesf1jycNdu3LgpWNqGDRsWLIMujrD+sfCDeXys2EUIIrIQgCz44DsBlzACEqsj8/qoFy5ZAiIU6xvCD7cv7mTcwNQfyyMuWOqT/HAMCyBAWbDCqmIsjFgP58yZE0QjQnbSpElhRTJCF+FHm2fNmmWrV68OopH41H/q1KlhHiHl0D7SIjzZ8r28H27auKi4AWIRw8oWDwgsrEQ8aX8xIxJl3Fj9hs4AwIDKDZx5Nqy088Gd+VY+QDDI8qoNXCk8xTNIsroRMcCgzJP2nK3RAEx66sAiA8TL93Mi1xMCkBs4T+PUhXldCMN3RkcDEnPvEKJYlqZujiaQMyAUac/MaFBjoKFcbuC47XBdlpci6bCy4WbCcoBIiJfJPgsysHrCCYHmoolLR3o4IX4RFwiuFXuiBRoslGCA8Y/HZVBFADabEA10WEgRd7gm2Ud8kw7uBFYe014GSlyWWHYQ8wgj6tVtYSqIIFxcP89LhTT0DdggmLk+DNqUgQvs0b7R4MiAzPkVu6M2YEnk1TQMmHDA4knAQotliONYPzmGtQxm1LW8H/gxMCNccDknuSOOaSMPCwg2ymSgjz+cILqYhsBUA84xzQGRyzWCnfcLxAuWJ4QiDw4wxJLFdAWsWVhksaAj3GgjeXGdcNtTLxY6wQsRhVhnDiD7iAz4YtmiHyFecIEiQl1kMPWBwG8UNzUPEjDlGH0uWNzLC7FAmFFfxBPCKB1HLPfU95sCkYUI8983W4Qr1nuu+7JdkchF4NEe7+f0Seo6Zl3UhxCS8T6CyIQfD2/eR7CAko58EJZcRyzgTcZFvyeuB32YB0pEOKIVYc314jojrOHEvQYLPQ8xrEhnygnnsEIiLrkHcL3cBQx78uJhh36LRdIFIL9PvzbUzTlU4BIoqQj82wmgV/7617/ahRdeWHkCkMUWCB3EGEIMkUPwfVYHX3fddWHeHXEQXAgoFz4sqnjnnXfsyy+/DAspmOuH6xSRtmnTpkJRhKUN6yDz55jThxhEJDKHjzxx4WJ9czcrrl7m5fH6FqxuiDLi8QoWVuYyF3D06NH2/PPPh7pyDKscIiz5QQBSNtZNrIV8Z+HIihUrwrsP+U46rJtYGhGbjzzyiD3xxBPBCorgY/HHPffcE9jAjDR84MAqYoQrQrEiApDBCRHEjZGbL3PLCDy9E3BxMeAwWHFjZmAcsTa6oXPTw/XGjZqbMHNsEA1Yt4jHog2eqBlAsS5g/avbPxXEECKQGztznbhZs8gAIUEZDNK4frh5UwYLO5izw80aqwmDEEIPAchEbYQJAzgLIDiOaGFAxZXnbWDr7WOwZsEAwhZByWBNGT7QJ69lSd9JR1sQBYVlxhhSLlY2LDcIT8pEhCG8GRhpIyKauYzMf0IEYMFETOCuxdpAHOIiiJfujiagEx9RhRCBOeIaMYHVg3l8DLKwQBBjTcU1y0prxANWDaxQiHbmbiLsWCTCq3bcfc/A5hZArH1cJyxTtJH0fMcyiFCiH1E/rjPWGlZlcv0ZhKkzFjoeJrhWzOE6ejKydgXrUHnBFwjnYWsi6ypc49c77PeNxBarS2FJ3bssiAZ7mBKYI0afwHpJn3PrDqIdcRnYF1iwqC9tQNjg4qWNCB+sVtO3pMKDB1Z02LswoP3EwfoHLyyA9GOsUOz7AohFcCl4dyDCk+tPn0J0cpx8+D1xHeEPW47zm4N7eT/g56GOh6r4fQB+P1V8XgAAFEZJREFUhb+bPmb/59toBS3HsALyoOL9kj5GP8ILwIMbdUKYIqb47cLNOdI2HhIoC+tbvI/Q/7Hk8SDhfQSOpOFegwDktwM3XjGEt4GVyawA5/f1/OBUOE4d6GfEpxziEYe+j8WUa8t15L7FQhJW+vK7oyz6Sd/l3F9S4d6AAOR+xW+BOcyvj4we0CQAy9vjlK6qEsDjyLQ6psxVyiIQxAoWQFyzCxYsCC5PXnmC1YvvLNrAEoc4w/LGMVb7Ip4QTKycxe3LoozFixcHUYQwQmSxdJk5fcQhLsewHrLqF2WLBY/tG2+8EUTcP//5T7vhhhvCalt/px8WRQLz9XBJI8L4znneA8jCE9KzUoYVxZSdToBxPC4AiZMM1JH3AeIKBzyrohG21BfRicWQeYc9e/Y0xCmC1q1+WB6xDPLuQvIp74cBjwEfKwaDCjdEnsq5ufNUzODO3EBcTwz4WGy4ETLYc+NGeODKwd2HG9Bv1AyQiEcGPcQMx8mPAZCBgpsyAxrWF57ssSpc3iUSJcwjYkBjwCDg6qEMXstwS/eCem2MhJS7Vr+dbVZ/aCR8eIUKrifEDzd3LECUy3faheBFiOF25hgDPgKlvB8GUAQQAw6WR1yOzw6OBnbaTBm4Y3F/YiXiO5ZSLA60D0sEgx7WOQZGF75YgWDIu9eYJwVDtlhHGJBYLEK4849ooGUAZO4g85qwWBCHgRrxEay8q6LryTVhcEb0sUX8Ip4u+jmyqDJ40yYP1JGyGRwZsBHqtMsFDufpD3yIFwRgr2jhiQ/8xMUyhDjCOkQ8z7+83ElHuTChXyJ8EVVYbeLXG6sr1mHmr8GelZvUiz5G27EO0u/dooWowhKG0GHwd/c2ZbkAZF4Z1xRxRhzi0o95oKFPYpEMbfR2FvRlWHF9meuGuGPfOZJ/AcbQL76cHrk3EUPk5WnTLQLxdOVlSZvpI9wHEEhPIYoKVjXDjN8NAooHLq49v9FdBfP7EKU8tNF/WWjDd+oLD643cwqx/tNO6sk5+jkLYfA8xPsIDyRFFoEU9EPajgBk8RIPLljxxqxLBVcx7PnNcY9A1GHdow48MGL15gEJEYpQ5AEAyzkikodG7l/TCn6jzP+jjvxGEZjMKeXhAotoEQE4IrpncJ3dBez9v7z8lU4EqgIB3kJy8cUX23nnnVc5ApBGIoQQLYiZyZMnh1W8WASx5DG3j5c1YxGbN29eoeAhPv+Vg/l6uGt5YSGi0PNDcPECZVbGMo8QEUj+5Ic1jTl4WNvIe9q0aWHRBWWgdnEJI/KwprGaGDcwYguXLAKQRRkIM8Qp9eV9gIhHrJPpVh9Tp3QCMFS24I8zQOxhycT6ibXvxhtvDOKXhS/vv/++XXbZZcG6SRwEIXWDBe5txCMMyKu8H1Jyc+XGhyhhcGcw5KaPQOMp3F0yCBZu3gQGDNww9/WOXL7u7qUq5McLdbHUYQnEOsZARxoGBZ9HxjHEIQMybt+/fB9ZGnFzIagoh/wQSAwKiBvm+1APzrOCF+saN36sf7yclQGdgZ3AwIKFhnScoz0EhCzihy3lU9/yE4zIe7vJj7lfvGoC6wP8aCcMsDKF14PEXLNwY64RFkIWsBCf+vAhHdYh5iRhsUCgUH/S8H4+BKcHBK8Ldd45x3GEH64qWLHFCkhZtJ24DKTUC7HDqk3mZjIoMx/OrzMc6RsE6kNc3JgIAtrq54hPvYnPu+8QAwgu0nhaVpiSlhWdpPXrG7W2fH9BBXvKRSAgjhH3CJHQf09Fx+jXiLUg/Ar6MPXgQQSLz5KdUT399wAz5pdhZWYxDnkjELB+4ypmkQPn6EMsNmJeG21FQLkFMF5WnCMCGwGIBYn9JEfvS7SF/s7qeefMAxNlIzycbei/FezA3m7KQcTSN7CW8XBEHfnt8oCAKzVeLr9nrGcIJCzp/Fa9PmwRfghALHAsAPM+Qv90Aej5sW02LhJtQaTH+gjpEOLUCWFWp380fYT+hOUWocd9g6kqb4yK+jAPdTyMMI8YSy7TTvhtYm3H4smDInH4nXAteGig/Rz/YnoqzENmn/nG3OdoGxZABGebqanQz+DBteWa6SMC+U6ANQ28I/k///M/K08AAsmtYQgYrG28pgX3KBYthBquUH/FCXE3b94cXLIIvOHDhwcBFBc+7CP2EHe4gnHh4ipGiDFfEAGI+xarIoKPFbaUhXURyxv5svDCXbq4khGABIQebuT27duHFzsjQsmTdwnyUmmsjPG60L7SCkDKRPyivHEpsxKYRSPs4wpn4QmLR3hXIeITUUtZ8ZCNTscNjBs9QiK4SaamwqtXWCDBgMr8JCx+3OcYhPoti26QPAW76PJ7IFtupMwLw03J/BxurpTBkzkC8LH+kZAhX8QCViyeyBFqrM5jNR9uNOqEUMA9g2UCF2a/5dF/RkD8YfHhv4QwCOBuYvUtN3XKIiAWET64sCduTNn49alQDqIREUPe2fqQFQMVAw7ilIUuvL5m4oZUsJDgooUncQjMy8O6hzDE5YTI4Lh/2EcQIrpgwupGBkZPH98yeGItZII8+y7IiMNgx+IGysc1TmAOGmIQaxkvg8aCgnUPTlgP+S8NDJYIAQZvHgoICMdLOkaiie+4MgnMv8JNjOhxAcjUAAQ4eRCXhT2kvb9X9J35WgyqXKeKfpw9Az5uauoMd643ljYWdmDhcmYzt6RCW7CWYimiv8brQTxEA3MqYf/j3IgHDxpYw4esStm0gle1IGT43TQaE4lC5srBkLRYJbE2BY4FrMgDNy6BfedIHOLSL7h+bgEcvTYSOLQJS+b//S56HQnpmAKA5T5b/RgGCGesfPSnTvOj/ovQxYLGPEsED3wQZB3mpMLvG2EE+yCGCi4m14Tv8OUB59bfowcT+ogLQOZbIma9j9D/mIZA2bSP/kl9aB/3AB5GsWpzj8LdTD7w4WGLewzWP5jigeC/5VBP0tLP4I3wxmJLmQTuG1gNqR/pqRseB1703b3glVeIesQlbm7a+cTAqF+THnFOGVnowhX9CSi9CFSYAN5GBCChUlzAyRpizcLyh1jj/wLfcccdISDgsK650MGix2tisApiBUsKLvL1vBCSvmqWY7iRf/755+BKRdD5C5QRU7yPkFepsNgENy8WQvLmlSvMFcQCyMIU5v8hIplDiBuYOhMHYUidkvWhXFzOiDvip/uQBtGKNQ+By1xEFsMgYllAwjw/GFBfVizzv4mT5aTLt7zHuPkjHvhfscxvwmrCfyzAOsSNlZsjHywWuDpx6e0r+H+6yRsgefnTNO+OY/AlDpaEjvPNXhoWLfpg8MStxACKcEKwYX1sODIVJuMjOrnBEhgAcB/zXz24wWMdWbg9GiBIh8UEEUk8rw83fwYQ3GgMFhd1jCbuIwrchVVeXunSUS51RbjSZgZzFgpgteA1KwwisCEerkvmo8ESLukGceJyjjlNuKyxQnEs+SEtAuHrWQVipiACUbmmlEtaBm0EJZP8EdgsTOg4LxWsi7DG4kM+uMC4DswLYy4aop0Af0QmWz/GFvZYUhjwmSzPIhEsgIhs8kiXltXdWJDStSfZvtJ+p3zaiLUJsYLVCkGGG48+EtinIoso/RJhAJ8kUr6TF6Kcd72xEpV+Rd7kwzUJlrJBCOxU4MuL0uHAC5PZ9lka9WtEcJwhC5eYMgFH9p0jcXiAQUjRh/h94a5kjiIuVs4TH0ub8+cBaviaVIhfWkYlxYMRv3XuATw8YDGGI/cBpiVQN+L4FBA4wyQpoikHjuRFn+AhxF/QjChkegZzdrGKJ/sIIh4uXRemwvWhTPJhugr9GOHFPteOaSrcD3BL+++O3xbxKd/rytQWLL64gdl6wGpIG8iXa87Lvb2/0CbK4B7C9f9qZipM1+Ahkz4Q2lwSUJ0XgTwhgMHpiiuuCP+RLCcCEC6IGgKiyUUZFrS42PE4vs3E08+TV3yf7+RJ8HPJsr1M0hHHg6eLp43HYT/5Kel8PH48rpeZbpuunHg+2dj3GyY3XG6G7p7ymz5lEIfvfuzc1p+tCWg8HkfZR6x44AZK8Dgen7LDsbNZnU1b4OIlj3i6wu+xNOzG20RZwf2YJv9Esgp99TKpUygz1k7PuAhHP5hm60y8rWmihEEuHTOP6/XxvAL/gjo5N/KPhxCnoB+Qd7EhcS3IpzB9hjxCe7yCWdw6V8p39uzTdj7OwttacDhtDTyvUNcC4Z5M7/mwDW12VjGeRY77+eS2ID31pAxP4/k7f9rk+8QJdUtb+4od9LZTXhGOsWy9bs42dqpw1/MJ9Sy4DkX6YZJbrH3eNvLgwzbwieXjeRXm7/EK0ng6zsfbgkAkOE/Pl3jxvDy9t4P44Xwsf+2KQHUgwGvpWF+BBzJnAtDBxYUQ++UVPMm0/j2+9TJ9mzwX/57cz5TGj/vW0/n34rYeN7klTfxYcXlk85zf7DINMOFGXMoC43HDfuzmXXizjeUVjxM7XOTmn7xBE89v4PE0vu95ki5TmzxuNrfxwSndoBFnU1y5Ho9tuo+3j/JK+hTmFRvoPE38nPMs9TY28MbrkzG9F1oJWy+/sH8ViCovytvp34vbZorrx4tsY307tNuZJI8X972gMhm5JdMWV/kKnqNtzjD0Xw7EPt722KGMux63yDbZluT3jLmdPVGYHzvFfOAZb0t8368VyeP7yewoInBIntB3EagGBFhbwdtFKv1/AVcDVmqCCIiACIiACIiACFQLAmPHjg3vPkYE5twCWC0IqhEiIAIiIAIiIAIikGcEJADz7IKpuiIgAiIgAiIgAiJQUQIuAHkbiSyAFaWp9CIgAiIgAiIgAiKQBwQkAPPgIqmKIiACIiACIiACIpBNAhKA2aSpvERABERABERABEQgDwhIAObBRVIVRUAEREAEREAERCCbBCQAs0lTeYmACIiACIiACIhAHhCQAMyDi6QqioAIiIAIiIAIiEA2CUgAZpOm8hIBERABERABERCBPCAgAZgHF0lVFAEREAEREAEREIFsEpAAzCZN5SUCIiACIiACIiACeUBg1KhR1qxZsxD0Iug8uGCqogiIgAiIgAiIgAhUlAAWwNatW1urVq30n0AqClPpRUAEREAEREAERCAfCIwbNy4IQESgLID5cMVURxEQAREQAREQARGoIAEJwAoCVHIREAEREAEREAERyDcCEoD5dsVUXxEQAREQAREQARGoIAEJwAoCVHIREAEREAEREAERyDcCEoD5dsVUXxEQAREQAREQARGoIAEJwAoCVHIREAEREAEREAERyDcCEoD5dsVUXxEQAREQAREQARGoIAEJwAoCVHIREAEREAEREAERyDcCEoD5dsVUXxEQAREQAREQARGoIAEJwAoCVHIREAEREAEREAERyDcCEoD5dsVUXxEQAREQAREQARGoIAEJwAoCVHIREAEREAEREAERyDcCEoD5dsVUXxEQAREQAREQARGoIAEJwAoCVHIREAEREAEREAERyDcCEoD5dsVUXxEQAREQAREQARGoIAEJwAoCVHIREAEREAEREAERyDcCEoD5dsVUXxEQAREQAREQARGoIAEJwAoCVHIREAEREAEREAERyDcCEoD5dsVUXxEQAREQAREQARGoIAEJwAoCVHIREAEREAEREAERyDcCEoD5dsVUXxEQAREQAREQARGoIAEJwAoCVHIREAEREAEREAERyDcCEoD5dsVUXxEQAREQAREQARGoIIGxY8daq1atQqh1+vRpS6VSFcxSyUVABERABERABERABKoygd9++80effRRe+ihh0wCsCpfKdVNBERABERABERABLJEoFOnTvaPf/zD/v73v0sAZompshEBERABERABERCBKk1g6NChdscdd9iFF14oAVilr5QqJwIiIAIiIAIiIAJZIMB0vzFjxtgTTzxhV1xxhdU6cuSI5gBmAayyEAEREAEREAEREIGqSuDkyZM2cuRIq1u3rl1++eVWa/To0Xb48GFjMYiCGPy7+8CpU6estMHrWtr48Xielm38eEX3+YERSpNPWeJmyi9TWd6+TOk4nimtpyltHsl2lJTO48fL9zRsvfxM23jcXO/H61RS2cRNF8fzKOu5dPH9mOeZ3Pr5TNt4/Exx/LjH9e++9eNs/VimrcfNdN6Pe7x0W49TE7dxHrTfvxfHgjh+Pr7v6f2ctlV7/Pdrne7+WZpzx44ds8WLF9vXX39tN910k51//vlW66OPPrLWrVuHwNLgDz/80D744IMQWrZsaS1atAihefPm5qFZs2aW6/Duu+/mvMxct7G6l/f+++9b06ZNjW2mtjZo0MBuvvnmEOe1114LHbVOnTohHWmfe+45u/766+3ll182+gSBNP/1X/8VjterV88aN25s7733Xgjs33XXXXbnnXeGuBxPls/3K6+8MqyM8vMcY79JkyZhvsQ999wT0nO8fv369r//+7/WsGHDUK///u//tkaNGoU6XXDBBfbggw+GCba33nqrvfPOO3bjjTfa7bffbm+//XYom7rz/T/+4z9CPqzG4vs111wT8iMNczQo03l5fbxdbOHzl7/8xd56660QL36O+DAmDqZ+yvTz5AnTSy+9tEg60vBkePXVV4c2xq9R7dq1w7XwPGgL14k2/M///E+oK/X2ctk+8MADoX60j+vAMerKBOTrrrsubGk35+JlPfvss+HmxDXzPN94441wjZNx4+nKsg8D2lKWNMQlnbeluLS0lTo7D4/Ld2eYPMdx+lRZ6uXtIC8Pnj/bZBleD99ynvaQjx/LtOW3xvWIn4+X6fvx88l90pfEj9+c58U23p7StClZZlX+DvfSsHcesEvy4brAJV07PR3nSMfv1uNxzu9Jfkzb3GsbmHP9SuoHL730Upi397e//c2uvfbacA/1sZDx56KLLrLzzjsv3KfZZ46fX9/HHnss3Ke59zJGMWax/f/NfZX+XXGO0AAAAABJRU5ErkJggg==;" vertex="1" parent="1">
          <mxGeometry x="80" y="170" width="640" height="223" as="geometry" />
        </mxCell>
        <mxCell id="IPWFRe141v1Tq7t88yk9-18" value="弹框原有的，更换接口" style="text;html=1;align=center;verticalAlign=middle;resizable=0;points=[];autosize=1;strokeColor=none;fillColor=none;" vertex="1" parent="1">
          <mxGeometry x="430" y="140" width="140" height="20" as="geometry" />
        </mxCell>
        <mxCell id="IPWFRe141v1Tq7t88yk9-19" value="" style="endArrow=classic;startArrow=classic;html=1;" edge="1" parent="1">
          <mxGeometry width="50" height="50" relative="1" as="geometry">
            <mxPoint x="160" y="470" as="sourcePoint" />
            <mxPoint x="160" y="320" as="targetPoint" />
          </mxGeometry>
        </mxCell>
        <mxCell id="IPWFRe141v1Tq7t88yk9-20" value="未选择文件，按钮不可点击" style="text;html=1;align=center;verticalAlign=middle;resizable=0;points=[];autosize=1;strokeColor=none;fillColor=none;" vertex="1" parent="1">
          <mxGeometry x="160" y="410" width="160" height="20" as="geometry" />
        </mxCell>
        <mxCell id="IPWFRe141v1Tq7t88yk9-23" style="edgeStyle=orthogonalEdgeStyle;rounded=0;orthogonalLoop=1;jettySize=auto;html=1;" edge="1" parent="1" source="IPWFRe141v1Tq7t88yk9-22">
          <mxGeometry relative="1" as="geometry">
            <mxPoint x="250" y="510" as="targetPoint" />
          </mxGeometry>
        </mxCell>
        <mxCell id="IPWFRe141v1Tq7t88yk9-25" style="edgeStyle=orthogonalEdgeStyle;rounded=0;orthogonalLoop=1;jettySize=auto;html=1;" edge="1" parent="1" source="IPWFRe141v1Tq7t88yk9-22">
          <mxGeometry relative="1" as="geometry">
            <mxPoint x="160" y="680" as="targetPoint" />
          </mxGeometry>
        </mxCell>
        <mxCell id="IPWFRe141v1Tq7t88yk9-22" value="接口返回" style="rhombus;whiteSpace=wrap;html=1;" vertex="1" parent="1">
          <mxGeometry x="120" y="470" width="80" height="80" as="geometry" />
        </mxCell>
        <mxCell id="IPWFRe141v1Tq7t88yk9-24" value="成功" style="text;html=1;align=center;verticalAlign=middle;resizable=0;points=[];autosize=1;strokeColor=none;fillColor=none;" vertex="1" parent="1">
          <mxGeometry x="200" y="480" width="40" height="20" as="geometry" />
        </mxCell>
        <mxCell id="IPWFRe141v1Tq7t88yk9-26" value="失败" style="text;html=1;align=center;verticalAlign=middle;resizable=0;points=[];autosize=1;strokeColor=none;fillColor=none;" vertex="1" parent="1">
          <mxGeometry x="160" y="600" width="40" height="20" as="geometry" />
        </mxCell>
        <mxCell id="IPWFRe141v1Tq7t88yk9-27" value="" style="shape=image;verticalLabelPosition=bottom;labelBackgroundColor=#ffffff;verticalAlign=top;aspect=fixed;imageAspect=0;image=data:image/png,iVBORw0KGgoAAAANSUhEUgAAAoAAAADBCAYAAABfVgHDAAAgAElEQVR4Ae2dWW4kuc5G7568rvL77U0kvId+/uFaQuMuoOEt9FsBtYaOH6LEEEUNETk4M4ZTQHdGKDSQh5T0pTJt/2fiHwQgAAEIQAACEIDAqQj857///e/EfzAgB8gBcoAcIAfIAXLgHDkQlK4IwFNJXpyFAAQgAAEIQAACJyUQRH74hwA8aQLgNgQgAAEIQAAC5yOAADxfzPEYAhCAAAQgAIGTE0AAnjwBcB8CEIAABCAAgfMRQACeL+Z4DAEIQAACEIDAyQkgAE+eALgPAQhAAAIQgMD5CCAAzxdzPIYABCAAAQhA4OQEEIAnTwDchwAEIAABCEDgfAQQgOeLOR5DAAIQgAAEIHByAgjAkycA7kMAAhCAAAQgcD4CCMDzxRyPIQABCEAAAhA4OQEE4MkTAPchAAEIQAACEDgfAQTg+WKOxxCAAAQgAAEInJwAAvDkCYD7EIAABCAAAQicjwAC8Hwxx2MIQAACEIAABE5OAAF48gTAfQhAAAIQgAAEzkcAAXi+mOMxBCAAAQhAAAInJ4AAPHkC4D4EIAABCEAAAucjgAA8X8zxGAIQgAAEIACBkxNAAJ48AXAfAhCAAAQgAIHzEUAAni/meAwBCEAAAhCAwMkJIABPngC4DwEIQAACEIDA+QggAM8XczyGAAQgAAEIQODkBBCAJ08A3IcABCAAAQhA4HwEEIDnizkeQwACEIAABCBwcgIIwJMnAO5DAAIQgAAEIHA+AgjA88UcjyEAAQhAAAIQODkBBODJEwD3IQABCEAAAhA4HwEE4PlijscQgAAEIAABCJycAALw5AmA+xCAAAQgAAEInI8AAvB8McdjCEAAAhCAAAROTgABePIEwH0IQAACEIAABM5HAAF4vpjjMQQgAAEIQAACJyeAADx5AuA+BCAAAQhAAALnI3BiAfg1Xd7epvefv88X9RUef328TW8fXytqUgUCEDgWgbg2Xv7eiVe/Pqf3t8vUXq1+T58/WMvqSC7vf2EPYH+syR2p5OkC0AuLKslkMr9Pn7/6mH//fJ/e3t7W/ffjc+pKvL8v01t34TDjSz23iLTadhYisbdrx2ixjYvX8iRcW8/4tHQpvly5ALSY6DgdNvr4Ya/J7t1sXrc4Lj6mOTJiPujbz8NB1Q0+Gs2ZgbmBVW8e3shxMNoVj54rUsJ6NJ4fN/Idehz6HK/rsfnaejpYYjeM65pxp0nW6dabXjvfdNi9v67I92pv3rvP2F8R2K8A7E1442JLeMnG1xWP4V1kXPwKgamLwq/fWUx2JlDsP78bbdlgTJymNF6xIIe+w5jDhScufLGdEYBi1wpxfCO/0vbyzouK4l58yVzKlmkR78al7U/BLHUoY86+Lfdb9bGWn9qquVE6NN91N5W5xg0XPi+SzctvFPJYRWxy8WOvxM527Ir5pSyL116uTNMk/g6ed7wY+jzqs+fHx2c8XSrsrv2tcqyyL+XpQi5VzW4skJycxVhjvRv4E3Istq/99DEt/V4v7JbXzOz40JaPr0li3vGnsC/F+BL8y93HKz/f/PNw31g3iv5bbVxZ15dhXsTcmcdSPxZOb4dzIdkV6lyzpjh3uN0Bgf0KwM6k9otQ6x3/14d/RxgmkZbFBXGeUL0gFhvGstBQu3RC9Sb75e+8UI4XQjvx47X2XZjcXbzW26y2V6/FwuS5uXux4/pNu/BlvrG+z4ULgtnUC7I7fMTdOv0t4lq28XdrFtHfv76+4SOonCOzTb9+T1+/4tbVyy3r7xrb576/6UJsmMV6e5C+L8sCJORrnhOdnNFhV8Xd9xHv+2O4OaBjVa+xn2d+5aKb/2LbWruTI6vYNXK24qAFnquWu1cZN8W4ZYMpC/7mOLl+vGhK/Vbrndtz5j2itcZa29xwvduY69etkRrHzzT3Q9/L/cT4Fv415uGQWc8JyndF4GkCMCZquWiHCVklWTWZwmKg4iyylQRvJKwn361nFobQJta7TF/ysfPKxa/oIy5Y84IQOi2eyygiBOpFqBxPOImwSpuCW3Rk0orvdsx4Xfc9rRZFwqAQdBXNjv2xXsXa+//tAjDxGvoQbY252Flovd0eg7nPsTKFzcsyxs0qrjDaWM6XYsFu5YWUWb/644b+m/ni7PjOW/FxxTwubJD4lOtB8bx3kzb5iqHmy6q42zkXBvLzzj93/GWMG2J6LaMeg6L8a7r8iGuezN1uPll7bW7lztq5lOZjq9+GP5ILGovQdbUP5PHilWMbCgNf03dpV7CnkTcpJsXa7YdassV+MmTaik+tN5mmjr28tn6MWz8m9g2fHae31q/JgyEnOwjXuyDwNAGoNPxELyepn/hpEUkLlfaxJlHnhd4sCNpeF25J5kqYNBaW3LB51P+WPgqKp3dv8fs1ZkOJPsaToHrTNePZBaxpl13A7GYTr+u+PU/riLs29ron8Xa4CEYf7AlGXMzs5tG6Nv4M+/cWWd/TM2d/lVdSTfNp6XuhLVs7ZWHTcmN7a+V+TR3TUPjZDdE8a35toHiuNya3QpHY0PFDN+rmfNH+HvsqPl41Xoqf57Imd4Lvrl3BOMXnc/j9OJ93yR5l13mdN81uDnT80phdxegRMXJ5M+wy1DXzuFt3XK+IReojlM1rWrUedgeSB7JHLHJz8QzxabVZk18Nc+I+1RZojerxU4nW+I3KwmtBXMY6PjYhDm2bxF4zRwr+ra8qNeyiaF8ENiEAZ7H29jZdfoaf6ApJGxeheQF4BFdZgMcb4PvPT/np4HnR7o1bLOZ2IQnXl+krPc8bSqwj/siCMrBDv7tiF4NqEfJj6mIZyy3T+rq1AETePb+HC6py1cUj+Vf0JWWtcRPgyr8e+FBufVeRq/6r0LlM9mORWfz8eJ/e00Zd2KfDFXHVwvarLLAfX+kEeSAq9ZS5+Eiy3aeWat96X746/8uH5q4X09jez61hjE2vV192Yis+2hxf6Li7oXb6t92Vm1l44hhoDo9yw+ed76N67vh3cyva4gWq2B/aXMHI+ty6FubJRx//XN/ZnR/EK+E9WL9C/5XNoU8nRkzcxvnemONiSbSzXt8WbAv7TPUducGcMnZ6FKP7yHqw5hWNUw5U3IpK6WS0xdfV01vNa+3378v0/nGZ10BlF3ggABXaeV43IQCLhWheXNxi0frhjLSQaRIvvVaTvrm4jheVuY9iMU+Td4U9ha8pz6qNd2ZgFo9ivNDQLljxOvZtr3XhNCyrfnKy+wXAPBl8/Gt4JQFY+RM6Ep+MP7nzeDX7vLx4a5znWFRtzTjzM8NgtieMZeqG8gEfb7Le1+JCn+hryg8Rn248reJe7Uat/oZXG+PZfxWYusjPfcXY2HrxkcuRVL8Zt7mvOy4kBo6/fg+zsrk3TvSlNX/WflxYCizHxsRd2ddjRW6Zp+fon/fHKL2M7Ur7Uo1g12pGZa+jO81ZifmKdWvOwWCLiWfOmeyrln2F39Yw2x6elzmg9cI3V4W5voHsGB5tXTd/bN+d7oriuf68XqxZhwa2aD8LPmUjUg64WORc0zVU14Dccs2V5nTuL8dL2wsDY6/mSHxe19d2vO6XwIsE4GU+ZSuTTJO8XCg83tZi4ZNX2iwtns3nLtHNxlDYUZT7hb+omW5inbipxDHmRbWY9Jfp8hHeoYb6mcO8QM1d2zFt3/a6wbOwe+4sXTjf1XL5tTvtxU7tksVeFg9rl+lfFsR2H1LLbCqmVeeyM4aIYmWmjAdjht6Fh7YJBbHvdmx6m8LCGLNvLjYd70JxNS+SXSpKyufRV32Wu23Hs/cRssay+inI3OFtV7P/ZXOZx0XuZ755o4ptYt0O507/OlrwK556mPa+jZ8Xcq8nRZpL2b4oxtMP+HR80ByaffFjqIGac2bznR+FNrOImkvvvijz58ruDLucMznX5jJTL+acnWel6JP4tvwvTOvleVFJbmYb6kd1idh5m7CqO9M1N+SKybdmxXGhzo/evNb8Gr/2bMjxUiuEmYlBmSN1fW3H634JPFUAakLbiVEmmU6ecqHweHM/5YLcnAjF4rm0uYfJ4hK9t2j3yr2x3fs4Tn7XH+/tZA8TMt63hEMsi5uLfW6vGzwX7JZFwC5caXGcN7HCnzBWjJVfPIpq4Ub66S1G+nwc96pPV1D/dLer8KJbyVfNwwX+amI1L5JI0DhIn2mxrmKmnfhc1vJiY9bCckPOpQ+4Go2nXAbDRP/yhprvF+a/8AnzKuSVvqaBQhzs2K24VGV2zoV+3FxzMaqEdtWfOh37yWuBlqc3KNZO8+ieyzK/0vhrhayJp8RC7IvrV8jPVlktAHP94IfN55FfUi+MJzYsxH/Bn7i2RjvC3mHX3p4NJbe6Vs7Nxlom8S9tXhpT/LXrcTWkz8lcIdrSW3NL/qGV1EcAZoAnuHqSAMxJ6id6NaHM4tLj7/toJa+0DRNutHg2n4eJYSZvb9H25WsWJGOL+DC4F/ulT/0+obFJHmam5UYUy+eFxfP0dktf9n+xfeQWF4m5L1vNXefFIy+oTUHuF2VdcLydrv+lW+FZ9B14JV+K8nIBHubHYNBWDjarp7xQ4VbGqtliFha5TahXLtjCO+SPxFNPqnx/ZZv5aScHVvs0d7TyohNbPweaval/8t3gzmbW6V/6C8/SPAvjaS7ba6nXYVLaZOdc+STeLTxPvqyaFzZnzTrRGvWWstL/Bbtd7tmP3Oc8NHVymRV2IRfNGiYs8r3kgq4FI4eq+TSqnJ+V/mp5Wh/SD/HF3Lhm/cr267yW2D4yXo6TWp5fHdf8IAo6Lx4TvyoH9bvMNu8a1+WaZAbjcpcEniQAMxs/0auJ2VjMW22qBG4ka3symk0xTK4fn1P4+FI3huqkSiZgY+Px5Q27s9f2XXH9rl4WTLs4mobie/CtWhztom188qcS3i5vtxkrX+ZFcOaSHzavxIfKRlNV7Ghw1CreTi0fvkY733/+T75SYE+W281Cfbtom1rCxYnDXk51yluLo8TPbwiLvrbsjL7OY0gfyd4u99wm51jMm1Zc/TwzdO677PjbZFOMZHJc+ujkT6f/oqtwo3206q+aF8aeqvNQsPC8O0ZsV8/xeq1oDntDYWCfcyCN38lrXWvL3IvzKIs9l2sp58vnee7l8mj8Uu7l+tHWbPs650t/U5uQB2Ln+j6b/aS4B07X2rVoveRM5lbV7+ZU2nO8AJw7yPHSImFs1pLS17q+tuN1vwS2JQD/vpifAs5Qy0TM5fbKJ699Zq9DX/OpT5g8sgCE5PYLWmrVm2Barq+yqSwICC8E0hBiu1183SRsC5u4aMmiXGxobjErnul33jobqYISn4wvxh6t4l8X+Ysdg3G9nX6A1r206Z1+tRrkOLeeXlMmebTERTi2F+8iD/3ALVZVXzHOcy5LH3aRTs9TXunGFHOtHYdVPnlb19x3Yjtk4PttMdE6nf71sX2VMQMTHzudx7ZydW3mnDyLvFUgdV/9WJ1+K5uqeo8rCBw0JxaFqzndEwsMb8mneQ2NczGXWXvt3HNr1IqPgFu5EnPZrFN2DV28tnOgbc8seI0bJbf0IK2XmadpcOdlzFdra9mhPO/kV4tZbm3Xilxqr5q+2gpc757AZgTgnKxmcYl0zaIrz26b8DI5pb2ZTGHiqigL18VHASm2zY3BLPw6+Sq7y9woF8XoU7FhqB2mmTDRhazxXKu2+p4XI29X0x/rqxHIUpx9bS2IhQ3KQgvtq2dvn4Vrb6d/3roXX6zAKrnODOa2dhOaCxsXqZ8Bc4nNor92k/XDxDFqG+13cTL78nTB+mnyOTH+P/krJ5ZLGlt49QTzgj3dkwTvV+O+E9t5zjeaVEWj/On0X/Uxn9T02BiWdeP5hG+et1X8I8PRPGl2q3ZV/bVrS6n43IvloF16FNjrmnj5eeUPsxjeee2JuRp8z2XWjvHcG8+nlO8jPsGmhfnammvRwkbuJ76+zczNuCa23zM/pK/wi7nLXyUV+x3E2MTBmDNfSnvX5/zQi/r8YL5q+To/1JyV/Wlp3uRWXG2LwIsFYJrY9ui8SurxwqE4ZdEZLRBa0bz6hUru/UT2gqkSHanDym4zkH7BtjMZvR2hpU7+uAApp8ZESwtV3nTcYpbsuny8T7pxtRY1edaxTzxJ40i9BudF/tK+Yb9iSv172/Rx63Ve4GbbGht70XBdLoUTkd+/9COU9gIsYzc4yHBrfUn1cuxC67yRFqbrjfqaYjUzCM9DbnZiGHO77Uvsujduyr2er2rX6FVsrmNT2D5qH55JH5386fTvu8zzrJEHfp7bxso8bHYdvrF6ZFXG03bUu76ecYxnh0dvGFMu7OfNe8lulxuGd8k05lcuMwNKXtc5oDXabdLTxH/INXzft/fGJ62n/bUl+l89l3FLxoGbr5dZtg8nfH31uXyNjHWNjq/l2K363b4Ts+5zs860fApj9crDMxsv8f+e9aF0jLsnEniaAJSESadZeSI3FmIjfubJEJIrJfRclvq65j6Omxbb1D5PkM4iONoYbKDW2NfZPOxksn5m28JAxu55sqWyTr9intjVWnhzf+U41qn29bzgzXbYU6t2m+EGnprYHFkX19ECmf1b7mvUTzKuim+LqX7EXm8SHSpzXs8xCPlmuBbtkg1z3Qa3PLdyyxgv52PlT0/ctOdo7r131drQ2htkNz6Wg9h7mcIvVu/Wb6wJyirmlo2Z5ofj0nOnKr/Ov1ZccpfJFutvfti8Gm3OzQZFofc93vdtjL7OzyUWkWVeu3KdXGYGNW1MqblUmzo5spZNc/7EvjUXzKDpcum5tlhbT+t/06vsSe5rDKvns9pk8rfDdpRjNsayvnT60NF43SaBpwnAbbr/QKsWFjg7YeKoZgKaE1Cp508hjZnFcxlzYQNbsMt0fdel2DVaBNbYepcFG2icFuZ5o1xtUsqFEb/VfT24YvBp9AbjwcN1u7sjf+KcseLPjlLOw1pc9trZPu69TuJndfyDzXfYVbGM4xd5K3WMGLM5IM/q8SPn2CaKreSXCvPV/t3LM5/e53iO1smBsPMcBmvz/VYv9xDfzNXsl1u6GrJWjZiMTwCLA4kXM3GecXsFAQTgFbCoCgEI7I3AnWJpb+5iLwQgAIGVBBCAK0FRDQIQgAAEIAABCByFAALwKJHEDwhAAAIQgAAEILCSAAJwJSiqQQACEIAABCAAgaMQQAAeJZL4AQEIQAACEIAABFYSQACuBLWuWvyJwuKn6dY1PGat6qcNj+lmyyv5aT37k5NFJX4wocDBDQQgAAEIPJ3AJgSg/PqA7ma5hkn6dQN39bFmnOU68cf0xz9eP/fS+XUK8XnjVzPMDc3Fih/nN7Wfe/lgAWh/zYT+eodKbI9+bcmzWKVfHVHZNtNHAM4ouIAABCAAgZcQOJkAjCd0Kh6uf10j7K44BRwKQP1dVuMxg+AsfsGpiBzz+7v0d3DZ1/T7uKJYXahr2/nrILjXjOfbzff591mtsaXwszNdpJ/e7xsbCcAk2qqcSH8esCqffYj8rNgTG4ZvRpYFYEvsjm3ILDtoKIYABCAAAQjMBLYjAN2G6jc7u8HO1s8X958Axg13LLZkuJ5QWLB/9scKgwUBqH8VpOt7w5Zcty1EhwJp5tm+WM1I/4zQx2V6f3uf3n+M/gRZe6xYOvgFrc1mC6emIwE49+f78Db4545zikmOQ/6zfnMOdHMl55+wtrki9nlbktFLeTT7xgUEIAABCEAgEtiOAKw2u1aI4ma7vJH6U628sbZ6DWXXiBvfx/KJj2+R7t3GHW3wttf3ehIWxrVCoxzFCZP0MLTR9mX95bt1jIxIEf8i+6Vx1/ruY1/4n8SXrzP/abUnCEDJhfkEMsSgdTLXK88xEB7VnDBsc9X05+Ra49hKXEMAAhCAAAQygZ0JwGx4eRU3xnv+ZNU6cVOOqney6VebtT5tvDaFSvo7p7N4aLTTk7Wfv+OmPxyzLTKWhFh71Fi6yEgElhEiRgCGHtqipjdiFLBXidUwvuNXCLIkAMPfky2EY2FCzKX8POVW99TOfATs/C/GLsZox8ZWiaxr8V+J29kuw912xDUEIAABCECgQeDpAlA2xXnTWrHBDUWOerQBAeiEh1o2fBWBlDdu2fS1H/dM+1EB9/XxPl0+3qdSENiTzpbIiJxKUTUWOLZuVwCqoFXb1VgnAKW4V1fb6KsTU1o8elU2uY7zV/rMOZdFXm6hf+MyP3N9TPE+P49CNdzXos3Gw47Rio193hPL3pbUppMrZY/cQQACEIAABDKBlwhAKyqyKfWVbKhPFYDx+2rXnSTGTbkUYllkzOVeHAV3Bxt3//TIcQqipsWo2XdLQLTKwhh1eS0Ak+9hfCeuZr8XxH7IhavfFPg+hW0UYuUJYBZnQk1szB9JBxvrXIw+ZYHnOfjnbgwZyJWp6PV2u/s8JgLQZTm3EIAABCDwYAL7EYArN9G+8MgnbS2GUdyEOknUvI2+X2d78ALBPgvXqb+rBGAQEGN751G8AFwhxErR07O/Lq8F4GzFNHk7zKPisilMixpRELZEbVmtuAu2vcsPnZhTNz+WEYDSOLGKwiuKNp8/7z+/ps8fDUE/EG/1SWRh6qqbyHp53GzvynxZNTqVIAABCEDg6AT2IwCHkUgi60rRYLusxI0KqaU+kzC1pze2XxWApehKNayoXfnrRmTD//E5/e+jLQ7mcaRvI4ZkyMiptLUWetG6urxiZB1VXk4YZYFi7e2LlWuEz+zrpIJZX5NhwSYbP7HRManKPCPPwT+PwlGZiv0yZqz3tlbIW5bd70t6W1IjL3RdX9xCAAIQgAAEPIGXCMC2KLACwVzbDXxhYyw2e/E0bcKt0zdHoi1uljfx2K4vaCYRJ+6jxkIsuba9zdyLGbV/VP7mxE6yRcVK7KIjKlZ9BKxGTA85AcwfBXu7zTjpsjhlC8xSnthyey3NKrFX96uCvWRk60VezefduGoembyuhPKyz2pbFr7WLq4hAAEIQAAC6wm8RACu3cDyaUp2qFWmG+PjBWActy0Ow7P0seFQYJYnRNmT1ncA14uxuZ8HCcCeKLex6nO4VwAmgRREnAjgkVDKz6xtMw9pf5m+WkL6uwXgbIS/GIjGUFVtnq+zj724dMvdGyZvCfcQgAAEIACBQODpAvBe7K8QgD2boyByJ3hV5SsEoDlBsuLmJuHVFDstW3qis3Jk/LsSje1dcTKfellmbnwrhmoT5pLqdG9+Yn7xshfmTSamoVx6sZZE/mx7R5z5sfS0Wr5L6vt0Y67wOeb9Zbr8eIvfdUToOYjcQgACEIDANQSeLADDZqofdcVNMf/Upr9PPwnpNtbNCMAkeKxQa4JvnURpxcGzKPqy2Gh+5Bj6CXaYjz/neqZch4snllZ85Sdrrm4Sor7jgc9SVZ5nv0diss0+5VHru3dXCMB5XJd/eto8c276F+3P9t0hABOP2FfsR65T+Ro78hzzxnIPAQhAAAJnJfBUARhObd5+hI/nIm4vKPx960+hSZ3q9CNt+r3yahOvw12NXVeZS2Jd972++Wl5IT7Pord8Nvo1MPPHy3ryVPkW+1JbgmDJgqP3a0SCAP8mAehcu/lWhI2+Sej30jsBzPnR8HUkAK3w7LBOxOWnglvCK4/t7VZROhK2zmexNcyXz+n33J0RgKks5lcZexWpMR/iCWbL3rlbLiAAAQhA4HQEnicAZUPz4sNtTo1TjShw8uZoBc98SqMiqff6SAGYNubmhmpFxGyL99nkWEvs6Mbvfg2N+m1FXuhJBMDsX+S5hovvx1jVvZSxCkFiPm6d/R2JnPpZxbHJsG7nBW8wOjKyvFV45fzpOtd8sJ5nsKfyZe4z2tF9bvNA4+84x65qAahDaH68yZsNW8/NMW3AKwQgAAEInJrAkwSg3ZBK3qWAifXKj6xCmd3Uy/bju1Z/7RZxA71VKLT77JZakSPiLdkZRNQs5lqt1/vTan11mYoRI+66IubqzjsNrBjqVAnFIW+siK3Fn228JORuzS87xjOuY/yt391Rqxzr1uQBBCAAAQickMCTBOAJyeLyEwkEgbcXEfdELAwFAQhAAAIQ6BBAAHbAUAwBCEAAAhCAAASOSgABeNTI4hcEIAABCEAAAhDoEEAAdsBQDAEIQAACEIAABI5KAAF41MjiFwQgAAEIQAACEOgQQAB2wFAMAQhAAAIQgAAEjkoAAXjUyOIXBCAAAQhAAAIQ6BBAAHbAUAwBCEAAAhCAAASOSgABeNTI4hcEIAABCEAAAhDoEEAAdsBQDAEIQAACEIAABI5KAAF41MjiFwQgAAEIQAACEOgQQAB2wFAMAQhAAAIQgAAEjkoAAXjUyOIXBCAAAQhAAAIQ6BBAAHbAUAwBCEAAAhCAAASOSgABeNTI4hcEIAABCEAAAhDoEEAAdsBQDAEIQAACEIAABI5KAAF41MjiFwQgAAEIQAACEOgQQAB2wFAMAQhAAAIQgAAEjkoAAXjUyOIXBCAAAQhAAAIQ6BBAAHbAUAwBCEAAAhCAAASOSgABeNTI4hcEIAABCEAAAhDoEEAAdsBQDAEIQAACEIAABI5KAAF41MjiFwQgAAEIQAACEOgQQAB2wFAMAQhAAAIQgAAEjkoAAXjUyOIXBCAAAQhAAAIQ6BBAAHbAUAwBCEAAAhCAAASOSgABeNTI4hcEIAABCEAAAhDoEEAAdsBQDAEIQAACEIAABI5KAAF41MjiFwQgAAEIQAACEOgQQAB2wFAMAQhAAAIQgAAEjkoAAXjUyOIXBCAAAQhAAAIQ6BBAAHbAUAwBCEAAAhCAAASOSgABeNTI4hcEIAABCEAAAhDoEEAAdsBQDAEIQAACEIAABI5KAAF41MjiFwQgAAEIQAACEOgQQAB2wFAMAQhAAAIQgAAEjkoAAXjUyOIXBCAAAQhAAAIQ6BBAAHbAUAwBCEAAAhCAAASOSgABeNTI4hcEIAABCEAAAhDoEEAAdsBQDAEIQAACEFbs+dMAAA2gSURBVIAABI5KAAF41MjiFwQgAAEIQAACEOgQQAB2wFAMAQhAAAIQgAAEjkoAAXjUyOIXBCAAAQhAAAIQ6BBAAHbAUAwBCEAAAhCAAASOSgABeNTI4hcEIAABCEAAAhDoEEAAdsBQDAEIQAACEIAABI5KAAF41MjiFwQgAAEIQAACEOgQQAB2wFAMAQhAAAIQgAAEjkoAAXjUyOIXBCAAAQhAAAIQ6BBAAHbAUAwBCEAAAhCAAASOSgABeNTI4hcEIAABCEAAAhDoEEAAdsBQDAEIQAACEIAABI5KAAF41MjuzK+//vprulwu0x9//DGFpOS/YzMIcQ7xDnHf6j9y8tg56NeYPeTkVucKdu2TAAJwn3E7lNV//vnnFP77559/pn///fdQvuFMm0CIc4i3xr5d63Wlahc5+boYPHvkrefks3kw3vEJIACPH+NNexhOWcJmy7/zEgjx39JJIDl53lxUz7eWk2oXrxB4JAEE4CNp0tfVBMLHgOGUhX/nJRDiH/JgK//Iya1E4nV2bC0nX0eCkY9MAAF45OjuwLfwvRs+9t1BoL7RxBD/kAdb+UdObiUSr7Njazn5OhKMfGQCCMAjR3cHvmkC7sBUTPxGAlvKgy3Z8o3I6XqBAHmwAIjHuyegOf4fvdi9RziwKwLk3a7C9W3GbikPtmTLtwGn40UC5MEiIirsnIDmOAJw54Hcq/magHu1H7sfQ2BLebAlWx5Dl15uIUAe3EKNNnsioDmOANxT1A5kqybggVzClRsIbCkPtmTLDShp8iAC5MGDQNLNZglojiMANxuiYxumCXhsL/FuicCW8mBLtixx4/n3ESAPvo8tPW+DgOY4AnAb8TidFZqAp3MchwsCW8qDLdlSQOLmqQTIg6fiZrAXENAcRwC+AD5DTvIn376Fw6/P6f3tMn19S+fb7vTr4216+/E5/W6a+TVd3t6nz1/Nhy8r1IXoZQaYgbdkizGLyycTIA+eDJzhnk5AcxwB+HT0DBgIaAI+nMaDBeDvn+/T29tb8d/lb2f135e+8ArPniFIxe+3qbJtNhUBOKPoXHxbTnbG+97iEO/xG6HwhuH9Z/vtwhTyqftm4nstf3Xvx8qDV9Nk/C0S0BxHAG4xOiewSRPwJldFVJWizIu0/n0+BZMTMyfufLvuBmkMl34+OmeOIwGYRJsf8+3jc/r8seyfFXvj079g7LIAbIndyraCV2ZpcFx1eVceXDXScuUt2bJs7UKNX7+nr/TmpZXDMdbv0+XvngD8PX2GE2U9Ne7lapEPA0G5YO6WHh8qD7YEFls2Q0BzHAG4mZCcyxBNwEd6LScaH5fp/e19ev8xOg0bjfpbxFdr02y3ivWtGCvqjQTgXNH34W3wz4OYM/41Tv/WiNso7vIpkYiC6tTH25KMljERgHMIN3qhQq/46F9ycl3s2jnRcraTJ62qGy/7jrVp4y5j3skIaI4jAE8W+K24qwn4GHvM5iPCJIoaEYS9j7imaYqb4/JJmz8FK8Re72RETwSfIABF7Ol43ZO+lSeACMDHpOTLeolzwefs4r2Ne8hZe1/54t6AyHMzB6v6+yp47Nq0L9+x9hwENMcRgOeI9+a81AS82zB/mmEEYOh7/QlGqB03tvWnf9M0hfFn8RW9KQRZEoCfP8PHbT1v4+aZn6/bxKW+878YuxhupQB0H+mNhcO6U6TCDHfzsDxw/d5yuyVbbrF/qY3kxlDYpR5CTg3rIQCXWPMcAlsmoGsdAnDLUTqwbZqAN7uoJ29OfMmX1/2X33t1/eBOTPnHrfuwqZaC0Z2ESJ/5lDGLPNtbWwDmfv3zvAHXp5j5I107wurvAFYbv/NHOxWmCEDFsYdXBOC6KN29Nq0bhloQeBkBzXEE4MtCcO6BNQGvpxAFiZxQOHE1Pq3KIiwIK9kMrzrtyu1lHBGeUYiVJ4BZnIlvYmP+SDq0zcJOvfcCz4su/9yNId24MhW9Cz5aQdo+LfW2JJsRgBq83bzeIgDXzZPwRqCTJ7uhkw29fW3KfXAFgS0T0BxHAG45Sge2TRPwLheDuKpOrBo9rhArqzdH030QTO/yQyfm1M2PZQSgNE2iNQqvJCCdSHv/+XXTTwHXwtIYu+KyPk10otfZOf+E6Iq+e1Uekge9zq8s35ItV5q+qvrqHB/Oqyj0whsZ++ZhmhCAq4JAJQhsgICudQjADQTjjCZoAt7lexJT607++h9XXiN8ssgK4i30qa/JE795io1GIIZqVVncPPOG6jdT/7w87csnd7HercIs92Oj4m1Jz7zQtU2uuH5IHlwx3qjqlmwZ2dl/pvFfEu6d5/pmyuewGVBE5Mel/Cl0ed7JE9N2L5f7z4O9kMbOVxHQHEcAvioCJx9XE/AuDIONquh3IFbyR1xOpBUdxJtQdxaAoc+0Ydpyey2tKrHX6DidnmQB6OvEzbX5XPrXDd2K3DViYNnn7z7ZeUgeeFw33m/Jlhtd6DeTOTD6SzGmaXNepXySnC/fgMSWCEBDkEsIbJqArnUIwE2H6bjGaQLe5WFzo2r02BSAZkPTzbH6iFOFVX6dBaAdRtpfpq/WON8tAK0dxXX0rykaQz21eb7OPq47UTX19eSoGH/dzUPyYN1Qi7W2ZMuisVdWkDc6H1/y3dduTmif1byKgi9/3QIBqKh4hcAeCehahwDcY/QOYLMm4F2uiLgyQmQo4OrTsVnMWTE0MKg63TN1ZYMN4/ufSr5JAKYNd+hPYyz9tTfy/awrBKDxw17Gj4Qv0+XHW/yu4x1Cz/Zrrx+SB7bDO663ZMsdbtRNJQc1/0Nu6XVdVUqsANQ5VuQ1ArBDjmII7IKArnUIwF2E63hGagLe5ZndqEYdtU7mbH15vk5IzqLRtk8f4Ta/eycb6NJHrek0UgVfsdmGgdaIuWh/tm9Nm45diUfsK/Yj16l88QSpYDO+eUgejIdY/XRLtqw2eqliEnBFzKRsIAJ1XnXjjQBcws5zCGyZgK51CMAtR+nAtmkCbsJF2eg6YsgY2DsBzD880ThdGQnAtMHKR67D07W+mMtjG0PlMrYZf5zrfE5iIX/UFzoyAjANoaedWWz6sdffbykPtmTLeoL9mhqnQvxp9a64Sz+kNMpHaesFZJ0nOtTeXo+WB3vjj73fT0BzHAH4/awZoUFAE7DxaLFIN7axuOmf6FUbohViegrXefWiRwRY8ZGaCi8nrha90grxdGWtb5Uv2s2qU8NkY1P4aUf9jT36Hjjf6us03ZMHauGjXrdky10+DeNpe9Zcc2IutK8EoNZN86rzvJ+PdtxtXx8mD7aNGeteSEBzHAH4wiCceWhNwE0wEAG4LGL8CWAt/qw3bsOsBKXbdG3TTV33BeAjzNxSHmzJltvYas4t53LR//wGyLwhqARe0UJu8huAniis2+yhZP95sAfK2PhKAprjCMBXRuHEY2sC7hdB2Gz3IuK2S3lLebAlW7YbseNbRh4cP8Zn91BzHAF49kx4kf+agC8anmE3QmBLebAlWzYSnlOaQR6cMuynclpzHAF4qrBvx1lNwO1YhCWvILClPNiSLa+IBWNGAuQBmXB0AprjCMCjR3qj/mkCbtQ8zHoSgS3lwZZseRJ+hmkQIA8aUCg6FAHNcQTgocK6H2c0AfdjMZZ+B4Et5cGWbPkO1vS5jgB5sI4TtfZLQHMcAbjfGO7a8j/++GP6999/d+0Dxt9HIMQ/5MFW/pGTW4nE6+zYWk6+jgQjH5kAAvDI0d2Bb5fLZfrnn392YCkmfheBEP+QB1v5R05uJRKvs2NrOfk6Eox8ZAIIwCNHdwe+/fXXX9Off/65A0sx8bsIhPiHPNjKP3JyK5F4nR1by8nXkWDkIxNAAB45ujvxLSy24b/wrpuPg3cStDvNDHEO8dbY39ndw5urXeTkw9FutsOt5+RmwWHYbgkgAHcbumMZHk5dwkdv4ftXISn579gMQpxDvLd08udnFDl57Bz0a8wectLnKPcQuIcAAvAeerSFAAQgAAEIQAACOySAANxh0DAZAhCAAAQgAAEI3EMAAXgPPdpCAAIQgAAEIACBHRJAAO4waJgMAQhAAAIQgAAE7iGAALyHHm0hAAEIQAACEIDADgkgAHcYNEyGAAQgAAEIQAAC9xBAAN5Dj7YQgAAEIAABCEBghwQQgDsMGiZDAAIQgAAEIACBewggAO+hR1sIQAACEIAABCCwQwIIwB0GDZMhAAEIQAACEIDAPQQQgPfQoy0EIAABCEAAAhDYIQEE4A6DhskQgAAEIAABCEDgHgIIwHvo0RYCEIAABCAAAQjskAACcIdBw2QIQAACEIAABCBwDwEE4D30aAsBCEAAAhCAAAR2SAABuMOgYTIEIAABCEAAAhC4hwAC8B56tIUABCAAAQhAAAI7JIAA3GHQMBkCEIAABCAAAQjcQwABeA892kIAAhCAAAQgAIEdEkAA7jBomAwBCEAAAhCAAATuIYAAvIcebSEAAQhAAAIQgMAOCSAAdxg0TIYABCAAAQhAAAL3EEAA3kOPthCAAAQgAAEIQGCHBBCAOwwaJkMAAhCAAAQgAIF7CCAA76FHWwhAAAIQgAAEILBDAgjAHQYNkyEAAQhAAAIQgMA9BBCA99CjLQQgAAEIQAACENghAQTgDoOGyRCAAAQgAAEIQOAeAioA/x/vcOdRfg/VzwAAAABJRU5ErkJggg==;" vertex="1" parent="1">
          <mxGeometry x="250" y="440" width="640" height="193" as="geometry" />
        </mxCell>
        <mxCell id="IPWFRe141v1Tq7t88yk9-28" value="" style="shape=image;verticalLabelPosition=bottom;labelBackgroundColor=#ffffff;verticalAlign=top;aspect=fixed;imageAspect=0;image=data:image/png,iVBORw0KGgoAAAANSUhEUgAAAusAAAFGCAYAAADTk9GQAAAgAElEQVR4Ae3d4a8tV3kfYP6YqP9CK9KUfOBLK6VI/VK1KSm4RlWDHdVBJWCMsQ2mStN+SIrbqi22sVqMS1W1JqRRIUlJDY5qnCgBEjsQg2MSDIbaCb7Gvrbvqt599Pqus+7Mnr3P2fesmT3Plo72npk1a6151mv0m2Gfc99UvAgQIECAAAECBAgQmJ3AM888U940u1mZEAECBAgQIECAAAECGwFhXSEQIECAAAECBAgQmKmAsD7ThTEtAgQIECBAgAABAsK6GiBAgAABAgQIECAwUwFhfaYLY1oECBAgQIAAAQIEhHU1QIAAAQIECBAgQGCmAsL6TBfGtAgQIECAAAECBAgI62qAAAECBAgQIECAwEwFhPWZLoxpESBAgAABAgQIEBDW1QABAgQIECBAgACBmQoI6zNdGNMiQIAAAQIECBAgIKyrAQIECBAgQIAAAQIzFRDWZ7owpkWAAAECBAgQIEBAWFcDBAgQIECAAAECBGYqIKzPdGFMiwABAgQIECBAgICwrgYIECBAgAABAgQIzFRAWJ/pwpgWAQIECBAgQIAAAWFdDRAgQIAAAQIECBCYqYCwPtOFMS0CBAgQIECAAAECwroaIECAAAECBAgQIDBTAWF9pgtjWgQIECBAgAABAgSEdTVAgAABAgQIECBAYKYCwvpMF8a0CBAgQIAAAQIECAjraoAAAQIECBAgQIDATAWE9ZkujGkRIECAAAECBAgQENbVAAECBAgQIECAAIGZCgjrM10Y0yJAgAABAgQIECAgrKsBAgQIECBAgAABAjMVENZnujCmRYAAAQIECBAgQEBYVwMECBAgQIAAAQIEZiogrM90YUyLAAECBAgQIECAgLCuBggQIECAAAECBAjMVEBYn+nCmBYBAgQIECBAgAABYV0NECBAgAABAgQIEJipgLA+04UxLQIECBAgQIAAAQLCeinld3/398sNN95Unn/hhU1FfPObT5d33nhTifd8tW1y/6HfYw4xl4c/8z/f6HpoPm8c3OND9Pmxf/Mf9jhDUwIECBAgQIAAgZ4CFx7Wf/Sjl8vtd3y0/NU3v/Wanwyo8R5tou3UK9oO9TW2byistkF8KBy3bYbmFW3Gxh3an9db9zU0Tjuf2H7b3/npa8aKc7e90mrIYNt5jhEgQIAAAQIECPQR6BbW66CaAT73xftQWI/9bdAcazvEGee250e7NiC34XiozVD/bT9DbWJfe73Zbmx/O592O8aN8B774/PQjcGu++J8LwIECBAgQIAAgXkILCKsZ4iNQBphMrbzNbewvmsojnYx9/oV11Z/HWcseD/0X/7bqa/p1DchbR91/9s+59dv4nwvAgQIECBAgACBeQh0DesZLL/z7Hc3T9IzvNYBPJ4WR0gfetIehHXbKdI61Oa5bbiOsBzzmvrOetww/OIv/fKZvteeNx95vTGX3BdjZ3DO/xegfZJeb9efo580ze/fT5nk8RwzzvciQIAAAQIECBCYh8Csw/of/tGTm6C+LUBG4G0D97btDMA1fxtw2wAcbes2Gaxvec+tJW408hVtto3dHqvDen3TEf3UNyftfOrt9gYk5+KdAAECBAgQIEBg+QKzDusRiqdedcidajsWbOsgHn1EGK5/gTM+x1dP8ql7bNdBe2rcXY5Hf3WYjzm184jjMfbnf+MLmyf/8V7PJW8i6n72/VzfJOwyb20IECBAgAABAgSun8CswnoE4giLUwHz0EF5KKwPfQ0mw3KE6Hzl10em5jx1POYQr3hvA3P9JD3a1NvRPvrexSTD/C5t8/q8EyBAgAABAgQI9BOYVVjPEBnvGViHnoYPPXGeCsNDx3O8DOsxZvzE12+Gwnr9y59DS1bPO4/XwTr3xfvQdUWYbr8HH23bPtrtGDeesMf+fOVNRF5j7BfWU8c7AQIECBAgQGAZArMP60MBuKXNsL3vL1VGP/lkOsJ8fI5XG4az3S5hfeimYGxfBPb6FePHvhg/wvfYfNr5DYXwto8YZ6hdPb7PBAgQIECAAAEC8xKYfVhvg2nLd54Amk+3IxTXQXxozLZNO4/YHrqxGOor2ubY2U8+CY9gn/+vQow5FPTj6Xv75D/6q5+ix7nt0/a0Guoz9kUfXgQIECBAgAABAvMR6BrWM9xGUI2AmmEz90e4zIA5FiTrkDsWQuv9dSjPZWiD+FDAbtvEuTGnDNaxHfOux5r6XF9TjBkhPK63fbXzabfTIP1ybu21pmXdrh3LNgECBAgQIECAwHwELjys15ceYTUCbR1a43gd1mN76Clx3c+un9t+87w2iLdh+L5PfPKNvwYTwThfMe927nks39u+cv8+7+28s88I93lDUN80ZHiPY3UwF9b3UdeWAAECBAgQINBfoFtYz8CZf36wDr1tOA2mOF4H0rPQjYXrsbCec4v5tG3q4BvXEl85yeC873v0Xb8ybMe42XfdJu3ifeiVc435x1zy3HrOQ+fZR4AAAQIECBAgMC+BLmE9Q2MG9AynuZ1hPfZHQI+wmeecNbAPhd5cigy3MV68sm39NZK2Tc45g3D21b5PBeu6ffQV4TrHzXmkS7bd1mc6hWG8ss9wS888lv15J0CAAAECBAgQmKdAl7Ae4bMN3RlA488mxrF8Ot0Gy6Fza9oMp3l+/d72lWE42tSBONrV29F/huC6v5jnE09+/VxP1bO/j91z7VdqYg7tnGMuaRXv7SvaZ9ivj0VfOda296Fz6358JkCAAAECBAgQuDiBCw/rESbboF5fbobioZBat/P5WoFtIf7a1vYQIECAAAECBAjMXeDCw/rcQcyPAAECBAgQIECAwFwEhPW5rIR5ECBAgAABAgQIEGgEhPUGxCYBAgQIECBAgACBuQgI63NZCfMgQIAAAQIECBAg0AgI6w2ITQIECBAgQIAAAQJzERDW57IS5kGAAAECBAgQIECgERDWGxCbBAgQIECAAAECBOYiIKzPZSXMgwABAgQIECBAgEAjIKw3IDYJECBAgAABAgQIzEVAWJ/LSpgHAQIECBAgQIAAgUZAWG9AbBIgQIAAAQIECBCYi4CwPpeVMA8CBAgQIECAAAECjYCw3oDYJECAAAECBAgQIDAXAWF9LithHgQIECBAgAABAgQaAWG9AbFJgAABAgQIECBAYC4CwvpcVsI8CBAgQIAAAQIECDQCwnoDYpMAAQIECBAgQIDAXASE9bmshHkQIECAAAECBAgQaASE9QbEJgECBAgQIECAAIG5CAjrc1kJ8yBAgAABAgQIECDQCAjrDYhNAgQIECBAgAABAnMRENbnshLmQYAAAQIECBAgQKARENYbEJsECBAgQIAAAQIE5iIgrM9lJcyDAAECBAgQIECAQCMgrDcgNgkQIECAAAECBAjMRUBYn8tKmAcBAgQIECBAgACBRkBYb0BsEiBAgAABAgQIEJiLgLA+l5UwDwIECBAgQIAAAQKNgLDegNgkQIAAAQIECBAgMBcBYX0uK2EeBAgQIECAAAECBBoBYb0BsUmAAAECBAgQIEBgLgLC+lxWwjwIECBAgAABAgQINALCegNikwABAgQIECBAgMBcBIT1uayEeRAgQIAAAQIECBBoBIT1BsQmAQIECBAgQIAAgbkICOtzWQnzIECAAAECBAgQINAICOsNiE0CBAgQIECAAAECcxEQ1ueyEuZBgAABAgQIECBAoBEQ1hsQmwQIECBAgAABAgTmIiCsz2UlzIMAAQIECBAgQIBAIyCsNyA2CRAgQIAAAQIECMxF4OLD+kuXSnniq6V8+VE/DNSAGlADakANqAE1oAbmXwORXSPDdnhdfFiPi33mW6X85Qt+GKgBNaAG1IAaUANqQA3MvwYiu0aG7fC6+LAed4+KkoEaUANqQA2oATWgBtTAkmogMmyHl7C+pCIxV/+jpgbUgBpQA2pADaiBPjUgrPtajP/HQQ2oATWgBtSAGlADamCmNSCsz3Rh3L32uXvlzl0NqAE1oAbUgBqYUw0I68K6O2k1oAbUgBpQA2pADaiBmdaAsD7ThZnTHZ25eMKgBtSAGlADakANqIE+NSCsC+vupNWAGlADakANqAE1oAZmWgPC+kwXxt1rn7tX7tzVgBpQA2pADaiBOdWAsC6su5NWA2pADagBNaAG1IAamGkNCOszXZg53dGZiycMakANqAE1oAbUgBroUwPCurDuTloNqAE1oAbUgBpQA2pgpjUgrM90Ydy99rl75c5dDagBNaAG1IAamFMNCOvCujtpNaAG1IAaUANqQA2ogZnWgLA+04WZ0x2duXjCoAbUgBpQA2pADaiBPjUgrB84rD/ySCkPPFDKHXeW8jPvOPmJz7Evjil0BmpADagBNaAG1IAaUAO71oCwfsCw/uCDpfzU27b/RJtdF2eB7X703HfL7b/w3nLPv/qXB7nOhx96cNNf9HvMbq7tgP8dLvC/G+tv/dWAGlADamC0BoT1AxXHz79ne0ivQ3y0PUOgeOorv1/+9t/6m+Wv/NiP7fwTYXfbWOcNwxHKI5xnmH7+mafLDW9/e5kaN0P90LXE+dFPtpnqa9v1OXag+j5DvbJnrwbUgBpQA2rgADUgrB8A8cZ37R7UM7THOXsGoAjrN7z9H5R4nzp316D7h4/93024PsuT8KFgPrRvaK5j83v8t7+wmU/0Ez+3vPtnd7reoTHsO0Bt71mjzJmrATWgBtSAGjhwDQjr5wT95V/ZP6hnYI9z9whD1yOsx/i7Bux2rhGs40l/ffOwa1+7hPXof+jJe+6L4+2cbJ+znveoR9as1YAaUANqQA1cQA0I6+dA/uIj1wb19/5CKfGTgTzfx/ZHHzsGpAjFh/4aTI4dwTe/fpL7tr1n2M7gvOt7hvs8P77iUt+E5Dy+8/U/3ny9pv6KTcwn/h+As/y/ANuuxbFz/DewY+0yZqwG1IAaUANq4Iw1IKyfES5CytAvlN50cyl/8vVSHn74amCPz9/4einvvvnqvgzxe/zCaR1qpwq+DsMZgOOp99h50SYC965BeKzPszxZr68r+433CPbtDYSwfo56FaxH63/svwv71ZsaUANqQA10rwFh/RxF+NF/fm34jhAeT9H/7NulfPI/n/z82TOl/LP3DreNPnYMUXWo3fWcaLfLL5FGCI6wnk++t/WfgTwCddsuj039Umh9M1FfV4b1eKJ+37+9Z/N0PW8y6nPacW2fo453rD/GjNWAGlADakANdKgBYf0c6O+4YTiAR2CPv63+/75/8vOhO8bbRR87hqUItRGmh0LyWB+7BNw6YO/y5DrGH3sCX/c1NqfYX8+rDetx0xBP1L/5lT849Qum2fc+179tDo6do/Z3rFnGjNWAGlADakANnLMGhPVzAG4L67fdVsr3nj35ic/5tZf2fY+wHsUeT6x3/X54tmu/993+RxPhN5+o15/bdrts73pDsS2s51df6jYxdh3qd5mLNueobWF855todabO1IAaUANq4LrWgLB+jgIb+xrMu28q5ck/KuW/fvrkJz7Hvjaox/YeX4O5HoWQgTiflLfb7Zj5dDtvBM7yHmH82W+c/ALp2C+YxjgxdhzPucXnqRuPdr62z1HfArvArgbUgBpQA2qgfw0I6+cIM0O/YPr3f7qU33m0lEf+z9VwHp9jXxxrA/sev2C6a/DMwB3hduqcoSfpQ/um+snjMWYE+Kmx6znGE/P4e+oR0GPsfLIefeZ2/nWYqX5zHt7PUdf+h3nyvxv1pb7UgBpQA2rgwmpAWD9HsQ396cYPf7iU++8v5R++82owj8+x7yN3X92XoX2HP92YXy05y1Ps+pwIvnVh5VPyfHJdH4t9Q/vrNu3n7O/zD/+PU78Y2raL7TqsZyAfCuvZ5z/92X/yxld1hvqz7xx1LJyf+u9CLaklNaAG1IAamFUNCOvnLMgL/EeRdi2cOghvOyfCeP0Uu26bIbkN+HWb+nOOmQE/zsvPdbuhz/k0fmwuedxT9XPWqlAulKsBNaAG1IAaWF4NCOsHCEA3vuvaJ+b55HzsPc45438wEYLzF0KH+sjgvC3cxrFtfUS/Ebin2kS7HK/9PnmMMRXY86Yg27aBPfuO/4egPTZ07fYdoJ7PWJfs2asBNaAG1IAauA41IKwfCPXn37N7YI+25wxE+dWYNiBHv3UAHhongnGE312emkfbbSE5+oi+xkL51PlxXl5DBvMcL68jjsfneM9jQ9dl34Fq+Zy1aR2sgxpQA2pADaiBA9aAsH5AzKFfOG2frF+HXyiN/yAi9NbfTx8Ltdlul6Ce/6HFOe0T9rxZaPfnOfV7hu52TtFvuy/aPnT/fZsbiaGbgLPMv56Lzwesd6H+3Dfd6lE9qgE1oAbUwGQNCOsHLpJHHinlgQdO/lGkn3lHKfET/0BS7ItjHQPO1FPubXPLp/H/+9c+uwnYu4T0tr8M7XHunR+49Zqgnu3jRmJb/3mjEME9z/F+4DruWKfW0lqqATWgBtSAGqhqQFivMAQU4VcNqAE1oAbUgBpQA2pgTjUgrAvr7l7VgBpQA2pADagBNaAGZloDwvpMF2ZOd3Tm4gmDGlADakANqAE1oAb61ICwLqy7k1YDakANqAE1oAbUgBqYaQ0I6zNdGHevfe5euXNXA2pADagBNaAG5lQDwrqw7k5aDagBNaAG1IAaUANqYKY1IKzPdGHmdEdnLp4wqAE1oAbUgBpQA2qgTw0I68K6O2k1oAbUgBpQA2pADaiBmdaAsD7ThXH32ufulTt3NaAG1IAaUANqYE41IKwL6+6k1YAaUANqQA2oATWgBmZaA8L6TBdmTnd05uIJgxpQA2pADagBNaAG+tSAsC6su5NWA2pADagBNaAG1IAamGkNCOszXRh3r33uXrlzVwNqQA2oATWgBuZUA8K6sO5OWg2oATWgBtSAGlADamCmNbCasP7EV0t55lvuFOd0p2gu6lENqAE1oAbUgBpQA+M1ENk1MmyH15sufMyXLp1cbNyd+GGgBtSAGlADakANqAE1MPcaiKAeGbbD6+LDeoeLNCQBAgQIECBAgACBJQoI60tcNXMmQIAAAQIECBBYhYCwvopldpEECBAgQIAAAQJLFBDWl7hq5kyAAAECBAgQILAKAWF9FcvsIgkQIECAAAECBJYoIKwvcdXMmQABAgQIECBAYBUCwvoqltlFEiBAgAABAgQILFFAWF/iqpkzAQIECBAgQIDAKgSE9VUss4skQIAAAQIECBBYooCwvsRVM2cCBAgQIECAAIFVCAjrq1hmF0mAAAECBAgQILBEAWF9iatmzgQIECBAgAABAqsQENZXscwukgABAgQIECBAYIkCwvoSV82cCRAgQIAAAQIEViEgrK9imV0kAQIECBAgQIDAEgWE9SWumjkTIECAAAECBAisQkBYX8Uyu0gCBAgQIECAAIElCgjrS1w1cyZAgAABAgQIEFiFgLC+imV2kQQIECBAgAABAksUENaXuGrmTIAAAQIECBAgsAoBYX0Vy+wiCRAgQIAAAQIEliggrC9x1cyZAAECBAgQIEBgFQLC+iqW2UUSIECAAAECBAgsUUBYX+KqmTMBAgQIECBAgMAqBIT1VSyziyRAgAABAgQIEFiigLC+xFUzZwIECBAgQIAAgVUICOurWGYXSYAAAQIECBAgsEQBYX2Jq2bOBAgQIECAAAECqxAQ1lexzC6SAAECBAgQIEBgiQLC+hJXzZwJECBAgAABAgRWISCsr2KZXSQBAgQIECBAgMASBYT1Ja6aORMgQIAAAQIECKxCQFhfxTK7SAIECBAgQIAAgSUKCOtLXDVzJkCAAAECBAgQWIWAsL6KZXaRBAgQIECAAAECSxQQ1pe4auZMgAABAgQIECCwCgFhfRXL7CIJECBAgAABAgSWKCCsL3HVzJkAAQIECBAgQGAVAsL6KpbZRRIgQIAAAQIECCxRQFhf4qqZMwECBAgQIECAwCoEhPVVLLOLJECAAAECBAgQWKKAsL7EVTNnAgQIECBAgACBVQgI66tYZhdJgAABAgQIECCwRAFhfYmrZs4ECBAgQIAAAQKrEBDWV7HMLpIAAQIECBAgQGCJAsL6ElfNnAkQIECAAAECBFYhIKyvYpldJAECBAgQIECAwBIFhPUlrpo5EyBAgAABAgQIrEJAWF/FMrtIAgQIECBAgACBJQoI60tcNXMmQIAAAQIECBBYhYCwvopldpEECBAgQIAAAQJLFBDWl7hq5kyAAAECBAgQILAKAWF9FcvsIgkQIECAAAECBJYoIKwvcdXMmQABAgQIECBAYBUCwvoqltlFEiBAgAABAgQILFFAWF/iqpkzAQIECBAgQIDAKgSE9VUss4skQIAAAQIECBBYooCwvsRVM2cCBAgQIECAAIFVCAjrq1hmF0mAAAECBAgQILBEAWF911X74pdK+bt/r5Qnn9z1DO0IECBAgAABAgQInEtAWN+VL0L6e9938nPp0q5nlfIvfmn8nO9/v5QbbiwlbgSGXg9+avxYto82Ma995pTnHuo95hDXEddz3lc4v/MfuSk6r6PzCRAgQIAAgaMQWHdYz7AcYXOXVwTJeLo+Fq7bPob6j/AeP/HK40P9Rfj+1/eU8lNv2z7etrCe840+zvIz9P8kDP0/DNtuSGqTmOvYPNJg2/XUfflMgAABAgQIEFiBgLAeT4QjIEY4jifUY2Fy1/3RV77aYJvhPNvkdgbVPK9+jyCcoTnO23Ue+bQ9ryvHjL7rp9djc4g2N9187dPyoWA+tK++hvwcc8h55b52/Oirnmu2806AAAECBAgQWKGAsJ5hvV38oWDZtmnDeHs8gmf85KsOybGvDarZrn6PsH3HnaV87vP13qufp+Y5FdbzeHvDENtjwboN04cK6+kxdkNSW14V8IkAAQIECBAgcLQCwvpYWG+D9VAJbAvKGTzrEBztx4JovX+fULptDjHnDON1//E5n9ZHmxivDeCx3c5j1/m3Y2Xf8R43AGET77FdO8V2Pa+YW/gd6vvwQ2toHwECBAgQIEBgxgLC+lhYz5Bbh+16IfN4BtH6WHyO/RFa8/w6lGbboX15rH2Pm4cIsm0QHtvOgDs0z/ZGJOZaB/Ohc7bNNc5tn8K384/tGGcsrMf/cxDHarM4R1gfkrSPAAECBAgQWIlAv7Ce4S/DZobLgM9gWgfI2B9hr33ymqF4qJ84J/rIY20QzDlEH0OvDJcRXttXhMh2Ltkm+63HGwqd2S4DfZ6fYTnnXc9v7Jw8N97rsbKvuo82rEf7OmwPjRGO7XrkmLG/Pj/3t+/pGf1H+9jOsbKP+MpP7ZHnDK1B279tAgQIECBAgMCRCfQJ6xnG6wAZYa0O7BHY6jCc59RBLs6p28Ti3HvfSQDMkFqHyDi3DtAZFOt51As8NGYej7HjZ+gV/WXQjjFzLm37HL++prq/PK+dX56X/cX57XWm5VAfbVhvt6O/PD/mE+NF//E+9Ip51OMPtYl9cR3ZT7zHdl5Lrkv0VV9vbOd1jvVrPwECBAgQIEDgSAX6hPWhcJehrQ1qGQLb0BaBsg3q9SKNHa/HHhqz7iM+Z8CM0Juvsb7jeAb8hx8+CbzRNs6Nm4g4Vr9y/Ggz9GqDdpxf/4WWNInz06ntJ/vIm4d8r+2yTc5j6JrbfnM7z425TL2y37juNqwPjZ191zUxNYbjBAgQIECAAIEjErj4sD4WUDOY1aEv28a++klvLEDsGwuoebzuKxctgl/2lf1vC4PZJvvKMJ7hMvvN99gfbfO8sXbRfqpNmtTzy/HrffF5zGKsj/YfHoo+Yt5D7WN/hvyzvodDzjOueyys1zck8bmdZzp7J0CAAAECBAisQODiw3qGzbHQl6E48SPkRds69GagbNvmOXl8bIx9wnr0mXOOf6Qozq2Dco7ZvtdBPM8fm0+7P59653W04+X+NMmg3c4htrNt3cdQCM59H7/36s3MUH/tvry2sZuFun3MIdplWI/5107Rtt7O9nENXgQIECBAgACBFQpcfFivw9gUeLZ9983XBsgI6mNhPfqdOh5tsv86yI7NKdpEqM4gPdYu92ffGahzf/0+1aYO2hmK22C/bTvGrvvIsTOYx3v9CrPob5tr3T4+p3O8b7vWaJvh+0+fOVnPobCefcYT9bDeZW3aOdkmQIAAAQIECByJwMWH9QyPuwTCaFM/ia3PiRCXT8iHFmPqeJyTYXkqEMbxCLH1nxecOif73hZgp9qk1baxMsSPjVP3kW3rgJ83HzmXODbWV+sc88o1iPNzrdp27XY9j6Gx8vguT+vbvm0TIECAAAECBI5I4OLDeuBFQItQ2IbQ/Esu2SaDZGxngMtwlyE0w2IuSvaR4bMNfHF+9pFt2nlkX7E/5jnURwbe7CvPyffse+x4tJtqk9cY84jrj19arV95fs6lvY4YO4/V1xF91d8Fz3HCMn8xNvre9oqx6vWJttFv/QuwY+fnTVjc/MS8WqN0Hzo21qf9BAgQIECAAIEjFOgT1gMyw3cdJjNsZsjM7YSPkNcGxNhX91E/fc8QWh+vg3eG3Xqc+py6r5xD/Z7zjP7bttl3G0Tr86fa1HNpb0py7Bw3t+vrq8eqP9dhPedQ9x8e9XZ97lD7+niu69h1x/56DWOs8Mv2cT15vD1Wj+MzAQIECBAgQGAFAv3C+txw62CcwXHXOWaAjdCZwT/3betrqk0G3zo457464OY8d72GDOvxy6TRT91/9hWhud5f953XmG2H3uP8do5h0e6Lczd/1vKPT8arx4xjeU7elAyNZR8BAgQIECBA4EgFhPXrtbBTQTzGnWoTATlCarTLkN6G2aH5R8DNp9NDx7OvCM7bnsRHKI/xPnz3ScjeJaS342Voz/ehm5d0GOs/bxR2ufZ2fNsECBAgQIAAgQULCOsLXjxTJ0CAAAECBAgQOG4BYf2419fVESBAgAABAgQILFhAWF/w4pk6AQIECBAgQIDAcQsI68e9vq6OAFxdWZ0AAAuuSURBVAECBAgQIEBgwQLC+oIXz9QJECBAgAABAgSOW0BYP+71dXUECBAgQIAAAQILFhDWF7x4pk6AAAECBAgQIHDcAsL6ca+vqyNAgAABAgQIEFiwgLC+4MUzdQIECBAgQIAAgeMWENaPe31dHQECBAgQIECAwIIFhPUFL56pEyBAgAABAgQIHLeAsH7c6+vqCBAgQIAAAQIEFiwgrC948UydAAECBAgQIEDguAWE9eNeX1dHgAABAgQIECCwYAFhfcGLZ+oECBAgQIAAAQLHLSCsH/f6ujoCBAgQIECAAIEFCwjrC148UydAgAABAgQIEDhuAWH9uNfX1REgQIAAAQIECCxYQFhf8OKZOgECBAgQIECAwHELCOvHvb6ujgABAgQIECBAYMECwvqCF8/UCRAgQIAAAQIEjltAWD/u9XV1BAgQIECAAAECCxYQ1he8eKZOgAABAgQIECBw3ALC+nGvr6sjQIAAAQIECBBYsICwvuDFM3UCBAgQIECAAIHjFhDWj3t9XR0BAgQIECBAgMCCBYT1BS+eqRMgQIAAAQIECBy3gLB+3Ovr6ggQIECAAAECBBYsIKwvePFMnQABAgQIECBA4LgFhPXjXl9XR4AAAQIECBAgsGABYX3Bi2fqBAgQIECAAAECxy0grB/3+ro6AgQIECBAgACBBQsI6wtePFMnQIAAAQIECBA4bgFh/bjX19URIECAAAECBAgsWEBYX/DimToBAgQIECBAYB+Bp14o5R//r1J+8iE/+xiEWdj1eAnrPdSNSYAAAQIECBDoIBCh862fFtT3CerRNszCrsdLWO+hbkwCBAgQIECAQAeBfUOq9qdvbDosWRHWe6gbkwABAgQIECDQQUD4Ph2+9/XosGTCeg90YxIgQIAAAQIEegjsG061Px3ue6yZJ+s91I1JgAABAgQIEOggIHyfDt/7enRYMk/We6AbkwABAgQIECDQQ2DfcKr96XDfY808We+hbkwCBAgQIECAQAcB4ft0+N7Xo8OSebLeA92YBAgQIECAAIEeAvuGU+1Ph/sea+bJeg91YxIgQIAAAQIEOggI36fD974eHZbMk/Ue6MYkQIAAAQIECPQQ2Decan863PdYM0/We6gbkwABAgQIECDQQeB6hu+3PPh6+fGP/6DE+9g4u7Spz920/4/Plbd88vJon3X76/25w5J5st4D3ZgECBAgQIAAgR4C1zPM3v3o6+V7l14vd/3m86Ph+sO/fal878XXyke++OpO4fvuR6+UF16+Uj7+2AvlJx54sfzkp65sbgj+2se+VaZ+/sZ/enmnMfYx6bFmnqz3UDcmAQIECBAgQKCDwD7BdN+29/xeKS+8XMrl16+Uex//4TWBPcLzUz+4vLnqzz51+uslY2N99HdK+epzJ1CPffuVcstvvFqee2k3uF/9xmvC+m5UWhEgQIAAAQIECMxBYCwUH2p/hOtLlyOwl3L/H1wNy/F1ls88cZKydw3qEe7f/O+/u/lazSe+VsqlV0uJ93qu8bQ9vnoTT9xzfzyNv3T5ShHW51Bx5kCAAAECBAgQILCzQAbaQ75HEI9QnV9Lia+sxFddHv7aD9/Yd+fnniuXLr++ebKe7eL9r9/3whshu51ThO0I3RG+22O5/eXvvLb56s0tv3W1jbC+czloSIAAAQIECBAgMCeBDLmHfN88TX/1bFf5rb84/aS8npewfmLqO+tnqy1nESBAgAABAgQWJ1CH4Yv4HIE7vsP+ia+M/4WYsXnUYT2+ElM/kc/Pjz3zo81T/Jv++7Ob4/GE/+4vnTyRj/PH+j7r/h4LLqz3UDcmAQIECBAgQKCDwFlD6lnPO1RYj++57/KK77Xf/1XfWd/FShsCBAgQIECAAIGZCZw1dJ/1vEOF9Xb8+J78vY+/uPlF1vhzkb6zPrNCMx0CBAgQIECAAIH9BdrQe97t9pdL8+sp+R6/ZHr5tZO/k5772vexXzKtvwZzap6fulLu+sKLm18+/YuXr/gF0/3LwBkECBAgQIAAAQJzFDgVeh8a/+XOXdud55dL02fsl0wHw/qnrpSf+7W/3AT0x58txV+DSUXvBAgQIECAAAECixfYNYQfot1HHnl58/Q7/ub6fb/30qm/hb5L/21Yj6f4N//q85ugngFfWF98SboAAgQIECBAgACBFNglJB+izVs+ebk89u2XN98pj3+BNL5X/nO//uJef52lDuvR312/+fwm/GdQj3kK67my3gkQIECAAAECBBYvcIggPtVHBOt7H//hJqjHV1WifQTsbz7/2tZ/BKnt942w/qXX3vhl0jqoR3thffEl6QIIECBAgAABAgRSoA3Eh97+iQdeLPEvmMZXX+pgfctvlfLcSyeBPf4WenylZWrsDOubP8X4aikZ/Ovzvvznr/oF01xc7wQIECBAgAABAssWqIPuIT/nP1r02Ldf2QANBesM7Jcul3Ln554rP/7xH2z9HnuG9bsfvXIq2McNQf5Fmad+cLk8d+lKib7zeqL9pctXSpyf+w713mP1/aNIPdSNSYAAAQIECBDoIHCo0Jr9xFde3vzv/rx85omXNlcT/yhR/IWYPD70nv/A0fcuXSnxL4+OhfaxsB43AvXrs39SNn1kgI8bgQjrMc7Q+OfZV497UZ+F9YuSNg4BAgQIECBAoLPAeYLq0Lmf+Fopr75eyi4hvT0/Q3d8PaZ+Mp7tImzv0m8+sa9p66/gZH+HeK/HuKjPwvpFSRuHAAECBAgQINBZ4BCBdc199Fg+Yb2HujEJECBAgAABAh0E1hy0D3HtHZasCOs91I1JgAABAgQIEOggcIjAuuY+OiyZsN4D3ZgECBAgQIAAgR4Caw7ah7j2HmvmyXoPdWMSIECAAAECBDoIHCKwrrmPDkvmyXoPdGMSIECAAAECBHoIrDloH+Lae6yZJ+s91I1JgAABAgQIEOggcIjAuuY+OiyZJ+s90I1JgAABAgQIEOghsOagfYhr77Fmnqz3UDcmAQIECBAgQKCDwCEC65r76LBknqz3QDcmAQIECBAgQKCHwLt+/fXy1k+XsubAfZZrD7Ow6/HyZL2HujEJECBAgAABAh0Evvadlzah8yyBdc3nRFAPux4vYb2HujEJECBAgAABAh0ELl26VF588UU/ZzAIux4vYb2HujEJECBAgAABAh0EXnnlFUH9DEE9bnDCrsdLWO+hbkwCBAgQIECAQCeB1157bRM8I3z62c0gzHq9hPVe8sYlQIAAAQIECBAgMCEgrE8AOUyAAAECBAgQIECgl4Cw3kveuAQIECBAgAABAgQmBIT1CSCHCRAgQIAAAQIECPQSENZ7yRuXAAECBAgQIECAwISAsD4B5DABAgQIECBAgACBXgLCei954xIgQIAAAQIECBCYEBDWJ4AcJkCAAAECBAgQINBLQFjvJW9cAgQIECBAgAABAhMCwvoEkMMECBAgQIAAAQIEegkI673kjUuAAAECBAgQIEBgQkBYnwBymAABAgQIECBAgEAvAWG9l7xxCRAgQIAAAQIECEwICOsTQA4TIECAAAECBAgQ6CUgrPeSNy4BAgQIECBAgACBCQFhfQLIYQIECBAgQIAAAQK9BIT1XvLGJUCAAAECBAgQIDAhIKxPADlMgAABAgQIECBAoJeAsN5L3rgECBAgQIAAAQIEJgSE9QkghwkQIECAAAECBAj0EhDWe8kblwABAgQIECBAgMCEgLA+AeQwAQIECBAgQIAAgV4CwnoveeMSIECAAAECBAgQmBAQ1ieAHCZAgAABAgQIECDQS0BY7yVvXAIECBAgQIAAAQITAsL6BJDDBAgQIECAAAECBHoJCOu95I1LgAABAgQIECBAYIvA008/Xd505513ljvuuKN86EMfKrfffvvm54Mf/GC57bbbNj8f+MAHyq233vrGz/vf//5y6J/3ve99xQ8DNaAG1IAaUANqQA2ogbnUwKHzbvRXZ+rI2Jm3I3tnDo9MHtk8Mvpdd91V/j+JFCjXrfRi3wAAAABJRU5ErkJggg==;" vertex="1" parent="1">
          <mxGeometry x="30" y="680" width="747" height="326" as="geometry" />
        </mxCell>
        <mxCell id="IPWFRe141v1Tq7t88yk9-29" value="批量新增教师" style="rounded=0;whiteSpace=wrap;html=1;" vertex="1" parent="1">
          <mxGeometry x="50" y="700" width="160" height="40" as="geometry" />
        </mxCell>
      </root>
    </mxGraphModel>
  </diagram>
</mxfile>
